<svg xmlns="http://www.w3.org/2000/svg" xmlns:xlink="http://www.w3.org/1999/xlink" fill="none" version="1.1" width="10.144749641418457" height="5.3458123207092285" viewBox="0 0 10.144749641418457 5.3458123207092285"><g transform="matrix(-1,0,0,-1,20.289499282836914,10.691624641418457)"><path d="M19.591689641418455,5.469189320709228C19.591689641418455,5.469189320709228,15.216689641418457,9.734812320709228,15.216689641418457,9.734812320709228C15.216689641418457,9.734812320709228,10.841687641418456,5.469189320709228,10.841687641418456,5.469189320709228C10.759728641418457,5.387230820709228,10.664062641418457,5.346251543709228,10.554687641418457,5.346251543709228C10.445312641418457,5.346251543709228,10.349645641418457,5.387230820709228,10.267686641418457,5.469189320709228C10.185728841418458,5.551147320709228,10.144749641418457,5.646814320709229,10.144749641418457,5.756189320709229C10.144749641418457,5.865564320709229,10.181208041418458,5.956710320709228,10.254124641418457,6.029626320709228C10.254124641418457,6.029626320709228,14.916129641418458,10.568682320709229,14.916129641418458,10.568682320709229C14.998089641418456,10.650652320709229,15.098409641418456,10.691622320709229,15.217119641418456,10.691622320709229C15.335839641418456,10.691622320709229,15.436159641418456,10.650652320709229,15.518119641418458,10.568682320709229C15.518119641418458,10.568682320709229,20.180149641418456,6.043189320709229,20.180149641418456,6.043189320709229C20.253049641418457,5.9612303207092285,20.289449641418457,5.863230320709229,20.289449641418457,5.749189320709228C20.289449641418457,5.635147320709229,20.248549641418457,5.539480320709228,20.166549641418456,5.4621893207092285C20.084579641418458,5.384897520709228,19.988939641418455,5.3461055337092285,19.879559641418457,5.3458138666492285C19.770189641418455,5.345522199709229,19.67454964141846,5.386501420709228,19.592559641418458,5.468751320709228C19.592559641418458,5.468751320709228,19.591689641418455,5.469189320709228,19.591689641418455,5.469189320709228C19.591689641418455,5.469189320709228,19.591689641418455,5.469189320709228,19.591689641418455,5.469189320709228Z" fill="#606266" fill-opacity="1"/></g></svg>