<svg xmlns="http://www.w3.org/2000/svg" xmlns:xlink="http://www.w3.org/1999/xlink" fill="none" version="1.1" width="20" height="20" viewBox="0 0 20 20"><defs><clipPath id="master_svg0_326_23652"><rect x="0" y="0" width="20" height="20" rx="0"/></clipPath></defs><g clip-path="url(#master_svg0_326_23652)"><g><path d="M0.25,3L0.25,17Q0.25,18.1391,1.055456,18.9445Q1.86091,19.75,3,19.75L17,19.75Q18.1391,19.75,18.9445,18.9445Q19.75,18.1391,19.75,17L19.75,3Q19.75,1.86091,18.9445,1.055456Q18.1391,0.25,17,0.25L3,0.25Q1.86091,0.25,1.055456,1.055456Q0.25,1.86091,0.25,3ZM3,18.25Q1.75,18.25,1.75,17L1.75,3Q1.75,1.75,3,1.75L17,1.75Q18.25,1.75,18.25,3L18.25,17Q18.25,18.25,17,18.25L3,18.25Z" fill-rule="evenodd" fill="#606266" fill-opacity="1"/></g><g><path d="M9.02315845703125,6.97198583984375L10.175168457031251,6.97198583984375L10.175168457031251,8.01599583984375L13.53515845703125,8.01599583984375L13.53515845703125,10.93200583984375L14.96316845703125,10.93200583984375L14.96316845703125,11.99999583984375L10.84716845703125,11.99999583984375Q11.80716845703125,13.51199583984375,15.07116845703125,14.41198583984375L14.44716845703125,15.43198583984375Q10.66716845703125,14.14800583984375,9.695158457031251,11.99999583984375L9.59917845703125,11.99999583984375Q9.25117845703125,12.76799583984375,8.81917845703125,13.28399583984375Q7.6071784570312495,14.66398583984375,4.8591614570312505,15.41998583984375L4.23516845703125,14.42398583984375Q6.99516845703125,13.65600583984375,7.955168457031251,12.52801583984375Q8.15916845703125,12.26401583984375,8.30315845703125,11.99999583984375L4.23516845703125,11.99999583984375L4.23516845703125,10.93200583984375L5.63915845703125,10.93200583984375L5.63915845703125,8.01599583984375L9.02315845703125,8.01599583984375L9.02315845703125,6.97198583984375ZM6.74316845703125,10.93200583984375L8.759158457031251,10.93200583984375Q8.98715845703125,10.12800583984375,9.02315845703125,9.312015839843749L9.02315845703125,9.08398583984375L6.74316845703125,9.08398583984375L6.74316845703125,10.93200583984375ZM12.43117845703125,10.93200583984375L12.43117845703125,9.08398583984375L10.175168457031251,9.08398583984375L10.175168457031251,9.312015839843749Q10.13916845703125,10.17601583984375,9.95916845703125,10.93200583984375L12.43117845703125,10.93200583984375ZM4.35516345703125,5.21997083984375L6.995178457031249,5.21997083984375L6.995178457031249,4.24798583984375L8.14715845703125,4.24798583984375L8.14715845703125,5.21997083984375L11.05117845703125,5.21997083984375L11.05117845703125,4.24798583984375L12.20315845703125,4.24798583984375L12.20315845703125,5.21997083984375L14.84316845703125,5.21997083984375L14.84316845703125,6.27600583984375L12.20315845703125,6.27600583984375L12.20315845703125,7.33196583984375L11.05117845703125,7.33196583984375L11.05117845703125,6.27600583984375L8.14715845703125,6.27600583984375L8.14715845703125,7.33196583984375L6.995178457031249,7.33196583984375L6.995178457031249,6.27600583984375L4.35516345703125,6.27600583984375L4.35516345703125,5.21997083984375Z" fill="#606266" fill-opacity="1"/></g></g></svg>