<svg xmlns="http://www.w3.org/2000/svg" xmlns:xlink="http://www.w3.org/1999/xlink" fill="none" version="1.1" width="20" height="20" viewBox="0 0 20 20"><defs><clipPath id="master_svg0_326_23641"><rect x="0" y="0" width="20" height="20" rx="0"/></clipPath></defs><g clip-path="url(#master_svg0_326_23641)"><g><path d="M0.25,3L0.25,17Q0.25,18.1391,1.055456,18.9445Q1.86091,19.75,3,19.75L17,19.75Q18.1391,19.75,18.9445,18.9445Q19.75,18.1391,19.75,17L19.75,3Q19.75,1.86091,18.9445,1.055456Q18.1391,0.25,17,0.25L3,0.25Q1.86091,0.25,1.055456,1.055456Q0.25,1.86091,0.25,3ZM3,18.25Q1.75,18.25,1.75,17L1.75,3Q1.75,1.75,3,1.75L17,1.75Q18.25,1.75,18.25,3L18.25,17Q18.25,18.25,17,18.25L3,18.25Z" fill-rule="evenodd" fill="#606266" fill-opacity="1"/></g><g><path d="M9.38813,4L10.59951,4L10.59951,6.03747L15,6.03747L15,11.725909999999999L13.82571,11.725909999999999L13.82571,11.0546L10.59951,11.0546L10.59951,15L9.38813,15L9.38813,11.0546L6.17429,11.0546L6.17429,11.725909999999999L5,11.725909999999999L5,6.03747L9.38813,6.03747L9.38813,4ZM6.17429,9.95932L9.38813,9.95932L9.38813,7.13276L6.17429,7.13276L6.17429,9.95932ZM10.59951,9.95932L13.82571,9.95932L13.82571,7.13276L10.59951,7.13276L10.59951,9.95932Z" fill="#606266" fill-opacity="1"/></g></g></svg>