<svg xmlns="http://www.w3.org/2000/svg" xmlns:xlink="http://www.w3.org/1999/xlink" fill="none" version="1.1" width="14" height="14" viewBox="0 0 14 14"><defs><clipPath id="master_svg0_69_000228/45_45698"><rect x="0" y="0" width="14" height="14" rx="0"/></clipPath></defs><g clip-path="url(#master_svg0_69_000228/45_45698)"><g><g></g><g><path d="M4.66667,2.33317090625L12.25,2.33317090625L12.25,3.49983390625L4.66667,3.49983390625L4.66667,2.33317090625ZM2.625,3.79150390625C2.141751,3.79150390625,1.75,3.39975390625,1.75,2.91650390625C1.75,2.43325490625,2.141751,2.041504045327,2.625,2.04150390625C3.10825,2.041504045327,3.5,2.43325490625,3.5,2.91650390625C3.5,3.39975390625,3.10825,3.79150390625,2.625,3.79150390625ZM2.625,7.87483390625C2.141751,7.87483390625,1.75,7.48308390625,1.75,6.99983390625C1.75,6.51658390625,2.141751,6.12483390625,2.625,6.12483390625C3.10825,6.12483390625,3.5,6.51658390625,3.5,6.99983390625C3.5,7.48308390625,3.10825,7.87483390625,2.625,7.87483390625ZM2.625,11.89983390625C2.141751,11.89983390625,1.75,11.50808390625,1.75,11.02483390625C1.75,10.54158390625,2.141751,10.14983390625,2.625,10.14983390625C3.10825,10.14983390625,3.5,10.54158390625,3.5,11.02483390625C3.5,11.50808390625,3.10825,11.89983390625,2.625,11.89983390625ZM4.66667,6.41650390625L12.25,6.41650390625L12.25,7.58317390625L4.66667,7.58317390625L4.66667,6.41650390625ZM4.66667,10.49983390625L12.25,10.49983390625L12.25,11.66650390625L4.66667,11.66650390625L4.66667,10.49983390625Z" fill="#000000" fill-opacity="1"/></g></g></g></svg>