<svg xmlns="http://www.w3.org/2000/svg" xmlns:xlink="http://www.w3.org/1999/xlink" fill="none" version="1.1" width="16" height="16" viewBox="0 0 16 16"><defs><clipPath id="master_svg0_281_17718"><rect x="0" y="0" width="16" height="16" rx="0"/></clipPath></defs><g clip-path="url(#master_svg0_281_17718)"><g><g></g><g><path d="M3.33349609375,10.000013505859375L3.33349609375,11.333343505859375C3.33327609375,12.031143505859376,3.87104609375,12.611043505859374,4.5668260937500005,12.663343505859375L4.66682609375,12.666643505859374L6.66682609375,12.666643505859374L6.66682609375,14.000043505859376L4.66682609375,14.000043505859376C3.19406609375,14.000043505859376,2.00016309375,12.806143505859374,2.00016309375,11.333343505859375L2.00016309375,10.000013505859375L3.33349609375,10.000013505859375ZM12.00019609375,6.666673505859375L14.93349609375,14.000043505859376L13.49679609375,14.000043505859376L12.69619609375,12.000043505859376L9.96949609375,12.000043505859376L9.17016609375,14.000043505859376L7.73416609375,14.000043505859376L10.66682609375,6.666673505859375L12.00019609375,6.666673505859375ZM11.33349609375,8.590013505859375L10.50216609375,10.666673505859375L12.16349609375,10.666673505859375L11.33349609375,8.590013505859375ZM5.33349609375,1.333343505859375L5.33349609375,2.666673505859375L8.00016609375,2.666673505859375L8.00016609375,7.333343505859375L5.33349609375,7.333343505859375L5.33349609375,9.333343505859375L4.00016609375,9.333343505859375L4.00016609375,7.333343505859375L1.33349609375,7.333343505859375L1.33349609375,2.666673505859375L4.00016609375,2.666673505859375L4.00016609375,1.333343505859375L5.33349609375,1.333343505859375ZM11.33349609375,2.000010505859375C12.80629609375,2.000010505859375,14.00019609375,3.193913505859375,14.00019609375,4.666673505859375L14.00019609375,6.000013505859375L12.66679609375,6.000013505859375L12.66679609375,4.666673505859375C12.66679609375,3.930293505859375,12.06989609375,3.333343505859375,11.33349609375,3.333343505859375L9.33349609375,3.333343505859375L9.33349609375,2.000010505859375L11.33349609375,2.000010505859375ZM4.00016609375,4.000013505859375L2.66682609375,4.000013505859375L2.66682609375,6.000013505859375L4.00016609375,6.000013505859375L4.00016609375,4.000013505859375ZM6.66682609375,4.000013505859375L5.33349609375,4.000013505859375L5.33349609375,6.000013505859375L6.66682609375,6.000013505859375L6.66682609375,4.000013505859375Z" fill="#000000" fill-opacity="1"/></g></g></g></svg>