<svg xmlns="http://www.w3.org/2000/svg" xmlns:xlink="http://www.w3.org/1999/xlink" fill="none" version="1.1" width="24" height="24" viewBox="0 0 24 24"><defs><clipPath id="master_svg0_53_056407/9_8469"><rect x="5" y="5" width="14" height="14" rx="0"/></clipPath></defs><g><rect x="0" y="0" width="24" height="24" rx="4" fill="#FFFFFF" fill-opacity="1"/><rect x="0.5" y="0.5" width="23" height="23" rx="3.5" fill-opacity="0" stroke-opacity="1" stroke="#DCDFE6" fill="none" stroke-width="1"/><g clip-path="url(#master_svg0_53_056407/9_8469)"><g><path d="M14.368631803817749,6.431499803817749C14.53266180381775,6.595586803817749,14.62481180381775,6.818105803817749,14.62481180381775,7.050124803817749C14.62481180381775,7.2821418038177494,14.53266180381775,7.504661803817749,14.368631803817749,7.668751803817749C14.368631803817749,7.668751803817749,10.037381803817748,12.00000180381775,10.037381803817748,12.00000180381775C10.037381803817748,12.00000180381775,14.368631803817749,16.331311803817748,14.368631803817749,16.331311803817748C14.528011803817748,16.496311803817747,14.616211803817748,16.71731180381775,14.61421180381775,16.94671180381775C14.61222180381775,17.176111803817747,14.520191803817749,17.39561180381775,14.357961803817748,17.55781180381775C14.19574180381775,17.72011180381775,13.976271803817749,17.81211180381775,13.746851803817748,17.81411180381775C13.51743180381775,17.81601180381775,13.296401803817748,17.72781180381775,13.13138180381775,17.56851180381775C13.13138180381775,17.56851180381775,8.181499803817749,12.618631803817749,8.181499803817749,12.618631803817749C8.017462403817749,12.45454180381775,7.925311803817749,12.232021803817748,7.925311803817749,12.00000180381775C7.925311803817749,11.767981803817749,8.017462403817749,11.545461803817748,8.181499803817749,11.38138180381775C8.181499803817749,11.38138180381775,13.13138180381775,6.431499803817749,13.13138180381775,6.431499803817749C13.295461803817748,6.267462403817749,13.517981803817749,6.175311803817749,13.75000180381775,6.175311803817749C13.982021803817748,6.175311803817749,14.20454180381775,6.267462403817749,14.368631803817749,6.431499803817749C14.368631803817749,6.431499803817749,14.368631803817749,6.431499803817749,14.368631803817749,6.431499803817749C14.368631803817749,6.431499803817749,14.368631803817749,6.431499803817749,14.368631803817749,6.431499803817749Z" fill="#303133" fill-opacity="1"/></g></g></g></svg>