<svg xmlns="http://www.w3.org/2000/svg" xmlns:xlink="http://www.w3.org/1999/xlink" fill="none" version="1.1" width="20" height="20" viewBox="0 0 20 20"><defs><clipPath id="master_svg0_53_056428/53_031423/53_46728"><rect x="0" y="0" width="20" height="20" rx="0"/></clipPath></defs><g clip-path="url(#master_svg0_53_056428/53_031423/53_46728)"><g><path d="M13.3333,1.6666259765625L17.5,5.8332959765625L17.5,17.5068259765625C17.5,17.9633259765625,17.1292,18.3333259765625,16.6722,18.3333259765625L3.327833,18.3333259765625C2.8706329999999998,18.3333259765625,2.5,17.9539259765625,2.5,17.5068259765625L2.5,2.4931259765625002C2.5,2.0366679765624998,2.870792,1.6666259765625,3.327833,1.6666259765625L13.3333,1.6666259765625ZM11.66667,6.6666259765625L11.66667,10.8241259765625L10,9.1666259765625L8.34233,10.8332959765625L8.33333,6.6666259765625L6.66667,6.6666259765625L6.66667,13.3333259765625L8.33333,13.3333259765625L10,11.6666259765625L11.66667,13.3333259765625L13.3333,13.3333259765625L13.3333,6.6666259765625L11.66667,6.6666259765625Z" fill="#1677FF" fill-opacity="1"/></g></g></svg>