<svg xmlns="http://www.w3.org/2000/svg" xmlns:xlink="http://www.w3.org/1999/xlink" fill="none" version="1.1" width="72" height="72" viewBox="0 0 72 72"><defs><clipPath id="master_svg0_53_063482/53_058644"><rect x="0" y="0" width="72" height="72" rx="0"/></clipPath></defs><g clip-path="url(#master_svg0_53_063482/53_058644)"><g><path d="M36,4.5C44.907,4.734,52.3251,7.8157499999999995,58.2548,13.74525C64.1844,19.674799999999998,67.26599999999999,27.093,67.5,36C67.26599999999999,44.907,64.1844,52.3251,58.2548,58.2548C52.3251,64.1844,44.907,67.26599999999999,36,67.5C27.093,67.26599999999999,19.674799999999998,64.1844,13.74525,58.2548C7.8157499999999995,52.3251,4.734,44.907,4.5,36C4.734,27.093,7.8157499999999995,19.674799999999998,13.74525,13.74525C19.674799999999998,7.8157499999999995,27.093,4.734,36,4.5C36,4.5,36,4.5,36,4.5C36,4.5,36,4.5,36,4.5ZM36,32.2043C36,32.2043,28.6875,24.8918,28.6875,24.8918C28.125,24.3293,27.4807,24.048,26.7547,24.048C26.0288,24.048,25.3958,24.3172,24.8557,24.8557C24.3158,25.3943,24.0465,26.0272,24.048,26.7547C24.0495,27.4823,24.3307,28.1265,24.8918,28.6875C24.8918,28.6875,32.2043,36,32.2043,36C32.2043,36,24.8918,43.3125,24.8918,43.3125C24.3293,43.875,24.048,44.5193,24.048,45.2452C24.048,45.9712,24.3172,46.6042,24.8557,47.1442C25.3943,47.6842,26.0272,47.9535,26.7547,47.952C27.4823,47.9505,28.1265,47.6693,28.6875,47.1082C28.6875,47.1082,36,39.7957,36,39.7957C36,39.7957,43.3125,47.1082,43.3125,47.1082C44.0625,47.8117,44.9295,48.0345,45.9135,47.7765C46.8975,47.5185,47.5185,46.8975,47.7765,45.9135C48.0345,44.9295,47.8117,44.0625,47.1082,43.3125C47.1082,43.3125,39.7957,36,39.7957,36C39.7957,36,47.1082,28.6875,47.1082,28.6875C47.6707,28.125,47.952,27.4807,47.952,26.7547C47.952,26.0288,47.6828,25.3958,47.1442,24.8557C46.6057,24.3158,45.9728,24.0465,45.2452,24.048C44.5177,24.0495,43.8735,24.3307,43.3125,24.8918C43.3125,24.8918,36,32.2043,36,32.2043C36,32.2043,36,32.2043,36,32.2043Z" fill="#F56C6C" fill-opacity="1"/></g></g></svg>