<svg xmlns="http://www.w3.org/2000/svg" xmlns:xlink="http://www.w3.org/1999/xlink" fill="none" version="1.1" width="14" height="14" viewBox="0 0 14 14"><defs><clipPath id="master_svg0_9_133719/2_01093"><rect x="0" y="0" width="14" height="14" rx="0"/></clipPath></defs><g clip-path="url(#master_svg0_9_133719/2_01093)"><g><path d="M2.720815,9.2010625C2.720815,9.2010625,5.373374999999999,10.7322625,5.373374999999999,10.7322625C5.373374999999999,10.7322625,8.435875,5.4276225,8.435875,5.4276225C8.435875,5.4276225,5.783315,3.8963725,5.783315,3.8963725C5.783315,3.8963725,2.720815,9.2010625,2.720815,9.2010625C2.720815,9.2010625,2.720815,9.2010625,2.720815,9.2010625ZM2.392688,10.0213725C2.392688,10.0213725,2.843755,12.0447625,2.843755,12.0447625C2.843755,12.0447625,4.826065,11.4156625,4.826065,11.4156625C4.826065,11.4156625,2.392688,10.0213725,2.392688,10.0213725C2.392688,10.0213725,2.392688,10.0213725,2.392688,10.0213725ZM6.220815,3.1307525C6.220815,3.1307525,8.873375,4.6620025,8.873375,4.6620025C8.873375,4.6620025,9.652565,3.3219425,9.652565,3.3219425C9.652565,3.3219425,6.999995,1.7906825,6.999995,1.7906825C6.999995,1.7906825,6.220815,3.1307525,6.220815,3.1307525C6.220815,3.1307525,6.220815,3.1307525,6.220815,3.1307525ZM1.421875,9.6932525C1.421875,9.6932525,6.671875,0.6015625,6.671875,0.6015625C6.671875,0.6015625,10.841685,3.0078125,10.841685,3.0078125C10.841685,3.0078125,5.591685,12.0994625,5.591685,12.0994625C5.591685,12.0994625,2.201063,13.1661625,2.201063,13.1661625C2.201063,13.1661625,1.421875,9.6932525,1.421875,9.6932525C1.421875,9.6932525,1.421875,9.6932525,1.421875,9.6932525ZM6.671875,13.1661625C6.671875,13.1661625,6.671875,12.2911625,6.671875,12.2911625C6.671875,12.2911625,12.796875,12.2911625,12.796875,12.2911625C12.796875,12.2911625,12.796875,13.1661625,12.796875,13.1661625C12.796875,13.1661625,6.671875,13.1661625,6.671875,13.1661625C6.671875,13.1661625,6.671875,13.1661625,6.671875,13.1661625Z" fill="#303133" fill-opacity="1"/></g></g></svg>