<svg xmlns="http://www.w3.org/2000/svg" xmlns:xlink="http://www.w3.org/1999/xlink" fill="none" version="1.1" width="20" height="20" viewBox="0 0 20 20"><defs><clipPath id="master_svg0_28_007172/9_119694/2_15702"><rect x="0" y="0" width="20" height="20" rx="0"/></clipPath></defs><g clip-path="url(#master_svg0_28_007172/9_119694/2_15702)"><g><g></g><g><path d="M5.62498298828125,2.0833740234375C7.58099298828125,2.0833744208015,9.16664298828125,3.6690340234375,9.16664298828125,5.6250440234375L9.16664298828125,9.1667040234375L5.62498298828125,9.1667040234375C3.66897298828125,9.1667040234375,2.08331298828125,7.5810440234375,2.08331298828125,5.6250440234375C2.08331298828125,3.6690340234375,3.66897298828125,2.0833742221195,5.62498298828125,2.0833740234375ZM7.49998298828125,7.5000440234375L7.49998298828125,5.6250440234375C7.49998298828125,4.589504023437501,6.66051298828125,3.7500440234375,5.62498298828125,3.7500440234375C4.589442988281251,3.7500440234375,3.74998298828125,4.589504023437501,3.74998298828125,5.6250440234375C3.74998298828125,6.6605740234375,4.589442988281251,7.5000440234375,5.62498298828125,7.5000440234375L7.49998298828125,7.5000440234375ZM5.62498298828125,10.8333740234375L9.16664298828125,10.8333740234375L9.16664298828125,14.3750740234375C9.16664298828125,16.331074023437502,7.58098298828125,17.9166740234375,5.62498298828125,17.9166740234375C3.66897298828125,17.9166740234375,2.08331358432725,16.331074023437502,2.08331358432725,14.3750740234375C2.08331358432725,12.4190740234375,3.66897298828125,10.8333740234375,5.62498298828125,10.8333740234375ZM5.62498298828125,12.5000740234375C4.589442988281251,12.5000740234375,3.74998298828125,13.3394740234375,3.74998298828125,14.3750740234375C3.74998298828125,15.4105740234375,4.589442988281251,16.2500740234375,5.62498298828125,16.2500740234375C6.66051298828125,16.2500740234375,7.49998298828125,15.4105740234375,7.49998298828125,14.3750740234375L7.49998298828125,12.5000740234375L5.62498298828125,12.5000740234375ZM14.37501298828125,2.0833740234375C16.331012988281252,2.0833742221195,17.91661298828125,3.6690340234375,17.91661298828125,5.6250440234375C17.91661298828125,7.5810440234375,16.331012988281252,9.1667040234375,14.37501298828125,9.1667040234375L10.83331298828125,9.1667040234375L10.83331298828125,5.6250440234375C10.83331298828125,3.6690340234375,12.41901298828125,2.0833742221195,14.37501298828125,2.0833740234375ZM14.37501298828125,7.5000440234375C15.41051298828125,7.5000440234375,16.25001298828125,6.6605740234375,16.25001298828125,5.6250440234375C16.25001298828125,4.589504023437501,15.41051298828125,3.7500440234375,14.37501298828125,3.7500440234375C13.33941298828125,3.7500440234375,12.50001298828125,4.589504023437501,12.50001298828125,5.6250440234375L12.50001298828125,7.5000440234375L14.37501298828125,7.5000440234375ZM10.83331298828125,10.8333740234375L14.37501298828125,10.8333740234375C16.331012988281252,10.8333740234375,17.91661298828125,12.4190740234375,17.91661298828125,14.3750740234375C17.91661298828125,16.331074023437502,16.331012988281252,17.9166740234375,14.37501298828125,17.9166740234375C12.41901298828125,17.9166740234375,10.83331298828125,16.331074023437502,10.83331298828125,14.3750740234375L10.83331298828125,10.8333740234375ZM12.50001298828125,12.5000740234375L12.50001298828125,14.3750740234375C12.50001298828125,15.4105740234375,13.33941298828125,16.2500740234375,14.37501298828125,16.2500740234375C15.41051298828125,16.2500740234375,16.25001298828125,15.4105740234375,16.25001298828125,14.3750740234375C16.25001298828125,13.3394740234375,15.41051298828125,12.5000740234375,14.37501298828125,12.5000740234375L12.50001298828125,12.5000740234375Z" fill="#1677FF" fill-opacity="1"/></g></g></g></svg>