<svg xmlns="http://www.w3.org/2000/svg" xmlns:xlink="http://www.w3.org/1999/xlink" fill="none" version="1.1" width="18.3333740234375" height="14.666988372802734" viewBox="0 0 18.3333740234375 14.666988372802734"><g><path d="M18.1254,12.5718C18.1254,12.5718,10.5116,0.699962,10.5116,0.699962C10.2347,0.266837,9.72184,0,9.16669,0C8.61153,0,8.09869,0.267051,7.82176,0.699962C7.82176,0.699962,0.207915,12.5718,0.207915,12.5718C-0.0694481,13.0041,-0.0692334,13.5367,0.20813,13.9689C0.485708,14.4012,0.998326,14.6674,1.55284,14.667C1.55284,14.667,16.7805,14.667,16.7805,14.667C17.3353,14.6671,17.8479,14.4012,18.1252,13.9689C18.4026,13.5367,18.4029,13.0041,18.1254,12.5718C18.1254,12.5718,18.1254,12.5718,18.1254,12.5718ZM10.0834,12.8333C10.0834,12.8333,8.25016,12.8333,8.25016,12.8333C8.25016,12.8333,8.25016,11,8.25016,11C8.25016,11,10.0834,11,10.0834,11C10.0834,11,10.0834,12.8333,10.0834,12.8333C10.0834,12.8333,10.0834,12.8333,10.0834,12.8333ZM10.0834,3.66652C10.0834,3.66652,10.0834,10.0831,10.0834,10.0831C10.0834,10.0831,8.25016,10.0831,8.25016,10.0831C8.25016,10.0831,8.25016,3.66631,8.25016,3.66631C8.25016,3.66631,10.0834,3.66652,10.0834,3.66652C10.0834,3.66652,10.0834,3.66652,10.0834,3.66652Z" fill="#E6A23C" fill-opacity="1"/></g></svg>