<svg xmlns="http://www.w3.org/2000/svg" xmlns:xlink="http://www.w3.org/1999/xlink" fill="none" version="1.1" width="14" height="14" viewBox="0 0 14 14"><defs><clipPath id="master_svg0_9_067585/9_8469"><rect x="0" y="0" width="14" height="14" rx="0"/></clipPath></defs><g clip-path="url(#master_svg0_9_067585/9_8469)"><g><path d="M9.368631803817749,1.431499803817749C9.53266180381775,1.595586803817749,9.62481180381775,1.8181058038177489,9.62481180381775,2.050124803817749C9.62481180381775,2.282141803817749,9.53266180381775,2.504661803817749,9.368631803817749,2.668751803817749C9.368631803817749,2.668751803817749,5.037381803817749,7.000001803817749,5.037381803817749,7.000001803817749C5.037381803817749,7.000001803817749,9.368631803817749,11.33131180381775,9.368631803817749,11.33131180381775C9.528011803817748,11.496311803817749,9.616211803817748,11.717311803817749,9.61421180381775,11.946711803817749C9.61222180381775,12.176111803817749,9.520191803817749,12.395611803817749,9.357961803817748,12.55781180381775C9.19574180381775,12.72011180381775,8.976271803817749,12.812111803817748,8.746851803817748,12.814111803817749C8.51743180381775,12.81601180381775,8.296401803817748,12.72781180381775,8.13138180381775,12.56851180381775C8.13138180381775,12.56851180381775,3.181499803817749,7.618631803817749,3.181499803817749,7.618631803817749C3.017462403817749,7.454541803817749,2.9253118038177495,7.232021803817749,2.925311803817749,7.000001803817749C2.9253118038177486,6.767981803817749,3.017462403817749,6.545461803817749,3.181499803817749,6.381381803817749C3.181499803817749,6.381381803817749,8.13138180381775,1.431499803817749,8.13138180381775,1.431499803817749C8.295461803817748,1.267462403817749,8.517981803817749,1.1753118038177492,8.75000180381775,1.175311803817749C8.982021803817748,1.175311803817749,9.20454180381775,1.267462403817749,9.368631803817749,1.431499803817749C9.368631803817749,1.431499803817749,9.368631803817749,1.431499803817749,9.368631803817749,1.431499803817749C9.368631803817749,1.431499803817749,9.368631803817749,1.431499803817749,9.368631803817749,1.431499803817749Z" fill="#303133" fill-opacity="1"/></g></g></svg>