<svg xmlns="http://www.w3.org/2000/svg" xmlns:xlink="http://www.w3.org/1999/xlink" fill="none" version="1.1" width="20" height="20" viewBox="0 0 20 20"><defs><clipPath id="master_svg0_115_54441/9_4796"><rect x="0" y="0" width="20" height="20" rx="0"/></clipPath></defs><g clip-path="url(#master_svg0_115_54441/9_4796)"><g><path d="M17.8333259765625,14.16652585735321Q17.8333259765625,14.26452585735321,17.8081259765625,14.359225857353211Q17.782925976562503,14.45382585735321,17.734325976562502,14.53892585735321Q17.6857259765625,14.62392585735321,17.616825976562502,14.69362585735321Q17.5480259765625,14.76332585735321,17.4635259765625,14.81302585735321L10.3802259765625,18.97972585735321Q10.2937859765625,19.03062585735321,10.1970159765625,19.05692585735321Q10.100245976562501,19.08332585735321,9.9999559765625,19.08332585735321Q9.899665976562499,19.08332585735321,9.8028959765625,19.05692585735321Q9.7061359765625,19.03062585735321,9.6196859765625,18.97972585735321L2.5363549765625,14.81302585735321Q2.4519169765625,14.76332585735321,2.3830699765625,14.69362585735321Q2.3142239765625,14.62392585735321,2.2655871765625,14.53892585735321Q2.2169507765625,14.45382585735321,2.1917883765625,14.359225857353211Q2.1666259765625,14.26452585735321,2.1666259765625,14.16652585735321L2.1666259765625,5.833165857353211Q2.1666259765625,5.73520585735321,2.1917893765625,5.640525857353211Q2.2169528765625,5.545845857353211,2.2655911765625,5.46080585735321Q2.3142299765625,5.37576585735321,2.3830789765625,5.3060758573532105Q2.4519289765625,5.23638585735321,2.5363689765625,5.18671585735321L9.6197059765625,1.0201698573532105Q9.7061459765625,0.9693236573532105,9.8029059765625,0.9429747573532105Q9.8996759765625,0.9166257773229104,9.9999559765625,0.9166257773229104Q10.100245976562501,0.9166257773229104,10.1970059765625,0.9429747573532105Q10.2937759765625,0.9693236573532105,10.3802159765625,1.0201698573532105L17.4635259765625,5.18671585735321Q17.5480259765625,5.23638585735321,17.616825976562502,5.3060758573532105Q17.6857259765625,5.37576585735321,17.734325976562502,5.46080585735321Q17.782925976562503,5.545845857353211,17.8081259765625,5.640525857353211Q17.8333259765625,5.73520585735321,17.8333259765625,5.833165857353211L17.8333259765625,14.16652585735321ZM10.7499959765625,17.02192585735321L16.3333259765625,13.73762585735321L16.3333259765625,7.244555857353211L10.7499959765625,10.43375585735321L10.7499959765625,17.02192585735321ZM9.2499959765625,17.02202585735321L3.6666259765625,13.73762585735321L3.6666259765625,7.24499585735321L9.2499959765625,10.43685585735321L9.2499959765625,17.02202585735321ZM4.3088859765625,5.88434585735321L9.9972759765625,9.136245857353211L15.6907259765625,5.884145857353211L9.9999559765625,2.5367558573532105L4.3088859765625,5.88434585735321Z" fill-rule="evenodd" fill="#1677FF" fill-opacity="1" style="mix-blend-mode:passthrough"/></g></g></svg>