<svg xmlns="http://www.w3.org/2000/svg" xmlns:xlink="http://www.w3.org/1999/xlink" fill="none" version="1.1" width="12.25" height="12.25" viewBox="0 0 12.25 12.25"><g><path d="M6.125,0C7.85691,0.0455,9.29932,0.644729,10.4523,1.79769C11.6053,2.95065,12.2045,4.39309,12.25,6.125C12.2045,7.85691,11.6053,9.29932,10.4523,10.4523C9.29932,11.6053,7.85691,12.2045,6.125,12.25C4.39309,12.2045,2.95065,11.6053,1.79769,10.4523C0.644729,9.29932,0.0455,7.85691,0,6.125C0.0455,4.39309,0.644729,2.95065,1.79769,1.79769C2.95065,0.644729,4.39309,0.0455,6.125,0C6.125,0,6.125,0,6.125,0C6.125,0,6.125,0,6.125,0ZM6.125,9.625C6.32566,9.61599,6.49206,9.54756,6.62419,9.41981C6.75631,9.29206,6.82237,9.128,6.82237,8.92762C6.82237,8.72725,6.75631,8.56085,6.62419,8.42844C6.49206,8.29602,6.32566,8.22996,6.125,8.23025C5.92434,8.23054,5.75794,8.2966,5.62581,8.42844C5.49369,8.56027,5.42763,8.72666,5.42763,8.92762C5.42763,9.12861,5.49369,9.29268,5.62581,9.41981C5.75794,9.54695,5.92434,9.61538,6.125,9.625C6.125,9.625,6.125,9.625,6.125,9.625C6.125,9.625,6.125,9.625,6.125,9.625ZM6.125,5.94737C5.97916,5.95641,5.85609,6.00877,5.75575,6.10444C5.65541,6.2001,5.60525,6.32319,5.60525,6.47369C5.60525,6.62419,5.65541,6.74946,5.75575,6.8495C5.85609,6.94954,5.97916,6.99971,6.125,7C6.72671,6.99096,7.24631,6.79948,7.68381,6.42556C8.12131,6.05165,8.39475,5.5685,8.50412,4.97612C8.58609,4.38375,8.47904,3.8414,8.183,3.34906C7.88696,2.85673,7.45179,2.51038,6.8775,2.31C6.30321,2.12771,5.75181,2.1436,5.22331,2.35769C4.69481,2.57177,4.28459,2.94321,3.99263,3.472C3.99263,3.472,4.88119,4.03244,4.88119,4.03244C5.03606,3.7224,5.26166,3.49913,5.558,3.36262C5.85434,3.22613,6.16875,3.20556,6.50125,3.30094C6.83375,3.39631,7.08896,3.58094,7.26688,3.85481C7.44479,4.12869,7.50866,4.43625,7.4585,4.7775C7.40834,5.11875,7.26016,5.39671,7.014,5.61137C6.76784,5.82604,6.47165,5.93775,6.12544,5.9465C6.12544,5.9465,6.125,5.94737,6.125,5.94737C6.125,5.94737,6.125,5.94737,6.125,5.94737Z" fill="#909399" fill-opacity="1"/></g></svg>