<svg xmlns="http://www.w3.org/2000/svg" xmlns:xlink="http://www.w3.org/1999/xlink" fill="none" version="1.1" width="20" height="20" viewBox="0 0 20 20"><defs><clipPath id="master_svg0_115_55707/28_038375"><rect x="0" y="0" width="20" height="20" rx="0"/></clipPath></defs><g clip-path="url(#master_svg0_115_55707/28_038375)"><g><g></g><g><path d="M10.93328287109375,14.18575078125L7.43411287109375,12.27745078125C6.15669287109375,13.64305078125,4.0060028710937505,13.69095078125,2.66911287109375,12.38345078125C1.33221987109375,11.07597078125,1.33221987109375,8.92476078125,2.66911287109375,7.61728078125C4.0060028710937505,6.30979078125,6.15669287109375,6.35764078125,7.43411287109375,7.72328078125L10.93411287109375,5.81495078125C10.36536287109375,3.5634407812499997,12.21554287109375,1.43488478125,14.52424287109375,1.68454678125C16.833042871093753,1.93420878125,18.18544287109375,4.40907078125,17.148542871093753,6.48695078125C16.11164287109375,8.56483078125,13.32094287109375,8.972200781249999,11.73324287109375,7.27745078125L8.23328287109375,9.18578078125C8.367612871093751,9.72025078125,8.367612871093751,10.27965078125,8.23328287109375,10.81412078125L11.73244287109375,12.72245078125C13.32004287109375,11.02770078125,16.11074287109375,11.43507078125,17.14764287109375,13.51295078125C18.18464287109375,15.59085078125,16.83224287109375,18.06565078125,14.52344287109375,18.31535078125C12.21464287109375,18.56505078125,10.36452287109375,16.436450781250002,10.93328287109375,14.18495078125L10.93328287109375,14.18575078125ZM4.99994287109375,11.66665078125C5.92042287109375,11.66665078125,6.66661287109375,10.92042078125,6.66661287109375,9.99995078125C6.66661287109375,9.07947078125,5.92042287109375,8.33328078125,4.99994287109375,8.33328078125C4.07947287109375,8.33328078125,3.33328287109375,9.07947078125,3.33328287109375,9.99995078125C3.33328287109375,10.92042078125,4.07947287109375,11.66665078125,4.99994287109375,11.66665078125ZM14.16664287109375,6.66662078125C15.08704287109375,6.66662078125,15.83324287109375,5.92042078125,15.83324287109375,4.99995078125C15.83324287109375,4.07947078125,15.08704287109375,3.33328078125,14.16664287109375,3.33328078125C13.24614287109375,3.33328078125,12.49994287109375,4.07947078125,12.49994287109375,4.99995078125C12.49994287109375,5.92042078125,13.24614287109375,6.66662078125,14.16664287109375,6.66662078125ZM14.16664287109375,16.66665078125C15.08704287109375,16.66665078125,15.83324287109375,15.92045078125,15.83324287109375,14.99995078125C15.83324287109375,14.07945078125,15.08704287109375,13.33325078125,14.16664287109375,13.33325078125C13.24614287109375,13.33325078125,12.49994287109375,14.07945078125,12.49994287109375,14.99995078125C12.49994287109375,15.92045078125,13.24614287109375,16.66665078125,14.16664287109375,16.66665078125Z" fill="#1677FF" fill-opacity="1"/></g></g></g></svg>