<svg xmlns="http://www.w3.org/2000/svg" xmlns:xlink="http://www.w3.org/1999/xlink" fill="none" version="1.1" width="14" height="14" viewBox="0 0 14 14"><defs><clipPath id="master_svg0_9_212029/2_15610"><rect x="0" y="0" width="14" height="14" rx="0"/></clipPath></defs><g clip-path="url(#master_svg0_9_212029/2_15610)"><g><g></g><g><path d="M9.3332959765625,9.333418046875C10.2998759765625,9.333418046875,11.0832959765625,10.116828046875,11.0832959765625,11.083418046875C11.0832959765625,12.049948046875,10.2998759765625,12.833448046875,9.3332959765625,12.833448046875C8.3667059765625,12.833448046875,7.5832959765625,12.049948046875,7.5832959765625,11.083418046875C7.5832959765625,10.116828046875,8.3667059765625,9.333418046875,9.3332959765625,9.333418046875ZM3.4999559765625,7.000078046875C4.7891259765625005,7.000078046875,5.8332959765625,8.044248046875001,5.8332959765625,9.333418046875C5.8332959765625,10.622578046875,4.7891259765625005,11.666748046875,3.4999559765625,11.666748046875C2.2107959765625003,11.666748046875,1.1666259765625,10.622578046875,1.1666259765625,9.333418046875C1.1666259765625,8.044248046875001,2.2107959765625003,7.000078046875,3.4999559765625,7.000078046875ZM9.3332959765625,10.500078046875C9.0112959765625,10.500078046875,8.7499559765625,10.761418046875,8.7499559765625,11.083418046875C8.7499559765625,11.405448046875,9.0112959765625,11.666748046875,9.3332959765625,11.666748046875C9.6552959765625,11.666748046875,9.9166259765625,11.405448046875,9.9166259765625,11.083418046875C9.9166259765625,10.761418046875,9.6552959765625,10.500078046875,9.3332959765625,10.500078046875ZM3.4999559765625,8.166748046875C2.8553759765624998,8.166748046875,2.3332959765625,8.688828046874999,2.3332959765625,9.333418046875C2.3332959765625,9.977998046875,2.8553759765624998,10.500078046875,3.4999559765625,10.500078046875C4.1445459765625,10.500078046875,4.6666259765625,9.977998046875,4.6666259765625,9.333418046875C4.6666259765625,8.688828046874999,4.1445459765625,8.166748046875,3.4999559765625,8.166748046875ZM8.4582959765625,1.166748046875C10.2304559765625,1.166748046875,11.6666259765625,2.6029180468749997,11.6666259765625,4.375078046875C11.6666259765625,6.147248046875,10.2304559765625,7.583418046875,8.4582959765625,7.583418046875C6.6861259765625,7.583418046875,5.2499559765625,6.147248046875,5.2499559765625,4.375078046875C5.2499559765625,2.6029180468749997,6.6861259765625,1.166748046875,8.4582959765625,1.166748046875ZM8.4582959765625,2.333418046875C7.3307059765625,2.333418046875,6.4166259765625,3.247498046875,6.4166259765625,4.375078046875C6.4166259765625,5.502668046875,7.3307059765625,6.416748046875,8.4582959765625,6.416748046875C9.5858759765625,6.416748046875,10.4999559765625,5.502668046875,10.4999559765625,4.375078046875C10.4999559765625,3.247498046875,9.5858759765625,2.333418046875,8.4582959765625,2.333418046875Z" fill="#FFFFFF" fill-opacity="1"/></g></g></g></svg>