<svg xmlns="http://www.w3.org/2000/svg" xmlns:xlink="http://www.w3.org/1999/xlink" fill="none" version="1.1" width="60" height="60" viewBox="0 0 60 60"><defs><linearGradient x1="0" y1="-0.004065752029418945" x2="1" y2="1.0175446271896362" id="master_svg0_9_5235"><stop offset="2.857142873108387%" stop-color="#6EAAFD" stop-opacity="1"/><stop offset="68.66760849952698%" stop-color="#1677FF" stop-opacity="1"/></linearGradient><clipPath id="master_svg1_95_68368"><rect x="0" y="0" width="60" height="60" rx="16"/></clipPath><clipPath id="master_svg2_95_68369"><rect x="-6" y="-6" width="72" height="72" rx="0"/></clipPath><linearGradient x1="0.5" y1="0" x2="0.5" y2="1" id="master_svg3_9_4894"><stop offset="0%" stop-color="#2F64C8" stop-opacity="1"/><stop offset="100%" stop-color="#4E81D3" stop-opacity="1"/></linearGradient></defs><g clip-path="url(#master_svg1_95_68368)"><rect x="0" y="0" width="60" height="60" rx="16" fill="url(#master_svg0_9_5235)" fill-opacity="1"/><g clip-path="url(#master_svg2_95_68369)"><g style="opacity:0;"><rect x="-4.615234375" y="-4.6153564453125" width="69.23077392578125" height="69.23077392578125" rx="12.500000953674316" fill="url(#master_svg3_9_4894)" fill-opacity="1" style="mix-blend-mode:passthrough"/></g><g><ellipse cx="30.000239849090576" cy="13.186946392059326" rx="2.967036724090576" ry="2.967036724090576" fill="#FAFAFA" fill-opacity="1" style="mix-blend-mode:passthrough"/></g><g><ellipse cx="30.000239849090576" cy="46.813106060028076" rx="2.967036724090576" ry="2.967036724090576" fill="#FAFAFA" fill-opacity="1" style="mix-blend-mode:passthrough"/></g><g><ellipse cx="46.813228130340576" cy="29.999995708465576" rx="2.967036724090576" ry="2.967036724090576" fill="#FAFAFA" fill-opacity="1" style="mix-blend-mode:passthrough"/></g><g><ellipse cx="13.186763286590576" cy="29.999995708465576" rx="2.967036724090576" ry="2.967036724090576" fill="#FAFAFA" fill-opacity="1" style="mix-blend-mode:passthrough"/></g><g><ellipse cx="18.131587505340576" cy="18.131953716278076" rx="2.967036724090576" ry="2.967036724090576" fill="#FAFAFA" fill-opacity="1" style="mix-blend-mode:passthrough"/></g><g><ellipse cx="41.868403911590576" cy="18.131953716278076" rx="2.967036724090576" ry="2.967036724090576" fill="#FAFAFA" fill-opacity="1" style="mix-blend-mode:passthrough"/></g><g><ellipse cx="18.131587505340576" cy="41.868403911590576" rx="2.967036724090576" ry="2.967036724090576" fill="#FAFAFA" fill-opacity="1" style="mix-blend-mode:passthrough"/></g><g><ellipse cx="41.868403911590576" cy="41.868403911590576" rx="2.967036724090576" ry="2.967036724090576" fill="#FAFAFA" fill-opacity="1" style="mix-blend-mode:passthrough"/></g><g><path d="M30.6699359375,13.1982540484375Q30.6700359375,13.1925722584375,30.6700359375,13.1868896484375Q30.6700359375,13.1209004484375,30.6571359375,13.0561786484375Q30.6443359375,12.9914576484375,30.6190359375,12.9304916484375Q30.5937359375,12.8695256484375,30.5571359375,12.8146576484375Q30.5204359375,12.7597896484375,30.4738359375,12.7131276484375Q30.427135937499997,12.6664666484375,30.3722359375,12.6298046484375Q30.3174359375,12.5931436484375,30.2564359375,12.5678906484375Q30.1954359375,12.5426376484375,30.1307359375,12.5297636484375Q30.0660359375,12.5168896484375,30.0000359375,12.5168896484375Q29.9340359375,12.5168896484375,29.8693359375,12.5297636484375Q29.804635937500002,12.5426376484375,29.743635937500002,12.5678906484375Q29.682635937500002,12.5931436484375,29.627835937500002,12.6298046484375Q29.5729359375,12.6664666484375,29.526235937499997,12.7131276484375Q29.4796359375,12.7597896484375,29.4429359375,12.8146576484375Q29.4063359375,12.8695256484375,29.381035937500002,12.9304916484375Q29.3557359375,12.9914576484375,29.342935937500002,13.0561786484375Q29.3300359375,13.1209004484375,29.3300359375,13.1868896484375Q29.3300359375,13.2030810484375,29.330835937499998,13.2192535484375Q29.4661359375,21.7697496484375,31.498335937500002,27.554689648437503L17.6738149375,41.3790896484375Q17.5723859375,41.4740896484375,17.5171109375,41.601589648437496Q17.4618359375,41.7291896484375,17.4618359375,41.868089648437504Q17.4618359375,41.9340896484375,17.4747099375,41.9987896484375Q17.4875839375,42.0635896484375,17.5128369375,42.1244896484375Q17.5380899375,42.185489648437496,17.5747509375,42.2403896484375Q17.6114129375,42.2951896484375,17.6580739375,42.3418896484375Q17.7047359375,42.3884896484375,17.7596039375,42.425189648437495Q17.8144719375,42.4618896484375,17.8754379375,42.487089648437504Q17.9364039375,42.512389648437505,18.0011249375,42.5252896484375Q18.0658467375,42.5380896484375,18.1318359375,42.5380896484375Q18.2707979375,42.5380896484375,18.3982979375,42.4828896484375Q18.5257979375,42.427589648437504,18.6208009375,42.3261896484375L32.0223359375,28.9246896484375Q32.0381359375,28.9628896484375,32.054035937500004,29.0006896484375Q34.5448359375,34.939189648437505,41.361835937500004,42.3069896484375Q41.457335937500005,42.417089648437496,41.5898359375,42.4775896484375Q41.722435937499995,42.5380896484375,41.8681359375,42.5380896484375Q41.9341359375,42.5380896484375,41.998835937500004,42.5252896484375Q42.0635359375,42.512389648437505,42.1245359375,42.487089648437504Q42.1855359375,42.4618896484375,42.2403359375,42.425189648437495Q42.295235937499996,42.3884896484375,42.3419359375,42.3418896484375Q42.388535937499995,42.2951896484375,42.4252359375,42.2403896484375Q42.4618359375,42.185489648437496,42.4871359375,42.1244896484375Q42.5123359375,42.0635896484375,42.5252359375,41.9987896484375Q42.5381359375,41.9340896484375,42.5381359375,41.868089648437504Q42.5381359375,41.7358896484375,42.4879359375,41.6135896484375Q42.437635937500005,41.4912896484375,42.344735937500005,41.397189648437504Q35.6884359375,34.2030896484375,33.2890359375,28.4826896484375Q33.1676359375,28.1931896484375,33.0518359375,27.8951896484375L42.3261359375,18.6209296484375Q42.4276359375,18.5259196484375,42.4828359375,18.3984096484375Q42.5381359375,18.2709096484375,42.5381359375,18.1319296484375Q42.5381359375,18.0659396484375,42.5252359375,18.001219648437498Q42.5123359375,17.9364996484375,42.4871359375,17.8755396484375Q42.4618359375,17.814569648437498,42.4252359375,17.7596996484375Q42.388535937499995,17.7048296484375,42.3419359375,17.6581696484375Q42.295235937499996,17.6115096484375,42.2403359375,17.5748496484375Q42.1855359375,17.538189648437502,42.1245359375,17.512939648437502Q42.0635359375,17.4876796484375,41.998835937500004,17.4748096484375Q41.9341359375,17.4619296484375,41.8681359375,17.4619296484375Q41.729135937500004,17.4619296484375,41.6016359375,17.5171996484375Q41.4741359375,17.5724696484375,41.379135937499996,17.6738796484375L32.5547359375,26.4982896484375Q30.7947359375,21.0824596484375,30.6699359375,13.1982540484375Z" fill-rule="evenodd" fill="#FAFAFA" fill-opacity="1" style="mix-blend-mode:passthrough"/></g><g><path d="M42.242723437500004,18.687370078125Q42.310823437500005,18.641359078125,42.3658234375,18.580233078125Q42.420823437500005,18.519108078125,42.4594234375,18.446496078125Q42.498023437499995,18.373884078125,42.5179234375,18.294096078125Q42.537823437499995,18.214308378125,42.537823437499995,18.132080078125Q42.537823437499995,18.066090878125,42.5249234375,18.001369078125Q42.512023437500005,17.936648078125,42.4868234375,17.875682078125Q42.4615234375,17.814716078125,42.4249234375,17.759848078125Q42.3882234375,17.704980078125,42.3415234375,17.658318078125Q42.2949234375,17.611657078125,42.2400234375,17.574995078125Q42.185123437499996,17.538334078125,42.1242234375,17.513081078125Q42.0632234375,17.487828078125,41.9985234375,17.474954078125Q41.933823437499996,17.462080078125,41.8678234375,17.462080078125Q41.756423437500004,17.462080078125,41.6509234375,17.498144078125Q41.5455234375,17.534209078125,41.4574234375,17.602455078125Q33.6306234375,23.266590078125,27.9635234375,25.652240078125Q21.9634534375,28.178080078125,13.1215390375,29.333480078125Q13.0599464375,29.339480078125,13.0004954375,29.356580078125Q12.9410444375,29.373780078125,12.8857464375,29.401580078125Q12.8304484375,29.429380078125,12.7811744375,29.466780078124998Q12.7319004375,29.504280078125,12.6903184375,29.550080078125Q12.6487354375,29.595880078125,12.6162514375,29.648580078125Q12.5837674375,29.701280078125002,12.5614804375,29.758980078125Q12.5391934375,29.816680078125,12.5278584375,29.877580078125Q12.5165234375,29.938380078125,12.5165234375,30.000280078125Q12.5165234375,30.066280078125,12.5293974375,30.130980078125Q12.5422714375,30.195680078125,12.5675244375,30.256680078125Q12.5927774375,30.317680078125,12.6294384375,30.372480078125Q12.6661004375,30.427380078124997,12.7127614375,30.474080078125Q12.7594234375,30.520680078125,12.8142914375,30.557380078125Q12.8691594375,30.593980078125,12.9301254375,30.619280078125Q12.9910914375,30.644580078125,13.0558124375,30.657380078125Q13.1205342375,30.670280078125,13.1865234375,30.670280078125Q13.2410598375,30.670280078125,13.2948784375,30.661480078125003Q22.3163034375,29.482680078125,28.4832234375,26.886610078125003Q34.291523437500004,24.441460078125,42.242723437500004,18.687370078125Z" fill-rule="evenodd" fill="#FAFAFA" fill-opacity="1" style="mix-blend-mode:passthrough"/></g><g><path d="M17.5568529375,18.476020078125Q17.4618359375,18.317175078125,17.4618359375,18.132080078125Q17.4618359375,18.066090878125,17.4747099375,18.001369078125Q17.4875839375,17.936648078125,17.5128369375,17.875682078125Q17.5380899375,17.814716078125,17.5747509375,17.759848078125Q17.6114129375,17.704980078125,17.6580739375,17.658318078125Q17.7047359375,17.611657078125,17.7596039375,17.574995078125Q17.8144719375,17.538334078125,17.8754379375,17.513081078125Q17.9364039375,17.487828078125,18.0011249375,17.474954078125Q18.0658467375,17.462080078125,18.1318359375,17.462080078125Q18.2242912375,17.462080078125,18.3132909375,17.487120078125Q18.4022909375,17.512159078125,18.4811839375,17.560367078125Q18.5600759375,17.608574078125,18.6229639375,17.676346078125Q18.6858519375,17.744119078125,18.7280349375,17.826390078125Q21.3521059375,22.558040078125,23.8861459375,25.265410078125Q26.5029459375,28.061200078124998,29.5909359375,29.315680078125Q32.6658359375,30.564980078125,36.844035937499996,30.544680078124998Q40.8021359375,30.525380078125,46.6596359375,29.348080078125Q46.7353359375,29.330280078125,46.8131359375,29.330280078125Q46.879135937499996,29.330280078125,46.9438359375,29.343180078125002Q47.0085359375,29.356080078125,47.0695359375,29.381280078125002Q47.1305359375,29.406580078125,47.1853359375,29.443180078125Q47.2402359375,29.479880078125,47.286935937500004,29.526480078124997Q47.3335359375,29.573180078125,47.3702359375,29.628080078125002Q47.406935937499995,29.682880078125002,47.4321359375,29.743880078125002Q47.4574359375,29.804880078125002,47.4702359375,29.869580078125Q47.483135937499995,29.934280078125,47.483135937499995,30.000280078125Q47.483135937499995,30.059280078125,47.4728359375,30.117380078125002Q47.4625359375,30.175380078125002,47.4422359375,30.230780078125Q47.421935937499995,30.286180078125,47.3923359375,30.337180078125Q47.3626359375,30.388180078125,47.3245359375,30.433180078124998Q47.2864359375,30.478180078125,47.2410359375,30.515880078125Q47.1956359375,30.553580078125,47.1443359375,30.582680078125Q47.093035937500005,30.611880078124997,47.037535937499996,30.631580078124998Q46.9819359375,30.651380078125,46.9237359375,30.661080078125Q40.938635937499996,31.864080078125,36.8505359375,31.883880078125Q32.4072359375,31.905480078125002,29.0868359375,30.556480078125Q25.7262359375,29.191280078125,22.908345937500002,26.180610078125Q20.2612159375,23.352410078125,17.5568529375,18.476020078125Z" fill-rule="evenodd" fill="#FAFAFA" fill-opacity="1" style="mix-blend-mode:passthrough"/></g><g><path d="M41.582735937500004,42.4742404296875Q38.192935937499996,41.0119604296875,35.589335937499996,40.3386104296875Q32.8260359375,39.6239274296875,30.272535937500002,39.6149554296875Q27.696425937500003,39.6059034296875,24.814695937499998,40.3121104296875Q22.0433959375,40.9912504296875,18.4057779375,42.4795004296875Q18.2750669375,42.5380704296875,18.1318359375,42.5380704296875Q18.0658467375,42.5380704296875,18.0011249375,42.5251904296875Q17.9364039375,42.5123204296875,17.8754379375,42.4870604296875Q17.8144719375,42.4618104296875,17.7596039375,42.4251504296875Q17.7047359375,42.3884904296875,17.6580739375,42.3418304296875Q17.6114129375,42.2951704296875,17.5747509375,42.2403004296875Q17.5380899375,42.1854304296875,17.5128369375,42.1244604296875Q17.4875839375,42.0635004296875,17.4747099375,41.9987804296875Q17.4618359375,41.9340504296875,17.4618359375,41.8680704296875Q17.4618359375,41.7655304296875,17.4925019375,41.6676904296875Q17.5231669375,41.5698404296875,17.5816909375,41.4856504296875Q17.6402159375,41.4014604296875,17.7212409375,41.3386204296875Q17.8022659375,41.2757804296875,17.8983759375,41.2400604296875Q21.6280859375,39.7141184296875,24.4959159375,39.0113147296875Q27.537025937499997,38.2660484296875,30.277235937500002,38.2756774296875Q32.9987359375,38.2852404296875,35.9247359375,39.0419843296875Q38.6284359375,39.7412514296875,42.1133359375,41.2445604296875Q42.207335937500005,41.2815104296875,42.2861359375,41.3444704296875Q42.3650359375,41.4074404296875,42.4218359375,41.4908504296875Q42.4786359375,41.5742604296875,42.508435937499996,41.6707004296875Q42.5381359375,41.7671404296875,42.5381359375,41.8680704296875Q42.5381359375,41.9340504296875,42.5252359375,41.9987804296875Q42.5123359375,42.0635004296875,42.4871359375,42.1244604296875Q42.4618359375,42.1854304296875,42.4252359375,42.2403004296875Q42.388535937499995,42.2951704296875,42.3419359375,42.3418304296875Q42.295235937499996,42.3884904296875,42.2403359375,42.4251504296875Q42.1855359375,42.4618104296875,42.1245359375,42.4870604296875Q42.0635359375,42.5123204296875,41.998835937500004,42.5251904296875Q41.9341359375,42.5380704296875,41.8681359375,42.5380704296875Q41.7183359375,42.5380704296875,41.582735937500004,42.4742404296875Z" fill-rule="evenodd" fill="#FAFAFA" fill-opacity="1" style="mix-blend-mode:passthrough"/></g><g><path d="M13.3807524375,29.358771Q22.2169434375,31.72483,25.8094234375,35.2859Q29.4898234375,38.93403,30.6586234375,46.691900000000004Q30.6697234375,46.751999999999995,30.6697234375,46.8131Q30.6697234375,46.8791,30.6568234375,46.943799999999996Q30.6439234375,47.0085,30.6187234375,47.069500000000005Q30.5934234375,47.1305,30.5568234375,47.1853Q30.5201234375,47.2402,30.4735234375,47.2869Q30.4268234375,47.3335,30.3719234375,47.3702Q30.3171234375,47.4069,30.2561234375,47.4321Q30.1951234375,47.4574,30.1304234375,47.4702Q30.0657234375,47.4831,29.9997234375,47.4831Q29.9386234375,47.4831,29.8786234375,47.4721Q29.8185234375,47.461,29.7615234375,47.4393Q29.7044234375,47.4176,29.6522234375,47.3859Q29.6000234375,47.354299999999995,29.5543234375,47.3137Q29.5087234375,47.2731,29.4712234375,47.224900000000005Q29.4337234375,47.1768,29.4055234375,47.1226Q29.3773234375,47.0685,29.3593234375,47.0101Q29.3414234375,46.9517,29.3342234375,46.8911Q28.231623437499998,39.57259,24.8666234375,36.23708Q21.5267934375,32.92648,13.0345504375,30.652537Q12.9796914375,30.63976,12.9277354375,30.618004Q12.8757794375,30.596246999999998,12.8281844375,30.566121Q12.7805904375,30.535995,12.7386934375,30.498346Q12.6967974375,30.460696,12.6617754375,30.41658Q12.6267524375,30.372464,12.5995874375,30.32312Q12.5724224375,30.273776,12.5538774375,30.220589Q12.5353324375,30.167401,12.5259284375,30.111864Q12.5165234375,30.0563276,12.5165234375,30Q12.5165234375,29.9340108,12.5293974375,29.869289Q12.5422714375,29.804568,12.5675244375,29.743602Q12.5927774375,29.682636,12.6294384375,29.627768Q12.6661004375,29.5729,12.7127614375,29.526238Q12.7594234375,29.479577,12.8142914375,29.442915Q12.8691594375,29.406254,12.9301254375,29.381001Q12.9910914375,29.355748,13.0558124375,29.342874Q13.1205342375,29.33,13.1865234375,29.33Q13.2857686375,29.33,13.3807524375,29.358771Z" fill-rule="evenodd" fill="#FAFAFA" fill-opacity="1" style="mix-blend-mode:passthrough"/></g></g></g></svg>