<svg xmlns="http://www.w3.org/2000/svg" xmlns:xlink="http://www.w3.org/1999/xlink" fill="none" version="1.1" width="30" height="30" viewBox="0 0 30 30"><defs><linearGradient x1="0" y1="-0.004065752029418945" x2="1" y2="1.0175446271896362" id="master_svg0_9_5235"><stop offset="2.857142873108387%" stop-color="#6EAAFD" stop-opacity="1"/><stop offset="68.66760849952698%" stop-color="#1677FF" stop-opacity="1"/></linearGradient><clipPath id="master_svg1_2_15901/2_15501"><rect x="0" y="0" width="30" height="30" rx="8"/></clipPath><clipPath id="master_svg2_2_15901/9_4879"><rect x="-3" y="-3" width="36" height="36" rx="0"/></clipPath><linearGradient x1="0.5" y1="0" x2="0.5" y2="1" id="master_svg3_9_4894"><stop offset="0%" stop-color="#2F64C8" stop-opacity="1"/><stop offset="100%" stop-color="#4E81D3" stop-opacity="1"/></linearGradient></defs><g clip-path="url(#master_svg1_2_15901/2_15501)"><rect x="0" y="0" width="30" height="30" rx="8" fill="url(#master_svg0_9_5235)" fill-opacity="1"/><g clip-path="url(#master_svg2_2_15901/9_4879)"><g style="opacity:0;"><rect x="-2.30767822265625" y="-2.307689666748047" width="34.615386962890625" height="34.615386962890625" rx="6.25" fill="url(#master_svg3_9_4894)" fill-opacity="1" style="mix-blend-mode:passthrough"/></g><g><ellipse cx="15.000119924545288" cy="6.593461751937866" rx="1.483518362045288" ry="1.483518362045288" fill="#FAFAFA" fill-opacity="1" style="mix-blend-mode:passthrough"/></g><g><ellipse cx="15.000119924545288" cy="23.406553030014038" rx="1.483518362045288" ry="1.483518362045288" fill="#FAFAFA" fill-opacity="1" style="mix-blend-mode:passthrough"/></g><g><ellipse cx="23.406553030014038" cy="14.999997854232788" rx="1.483518362045288" ry="1.483518362045288" fill="#FAFAFA" fill-opacity="1" style="mix-blend-mode:passthrough"/></g><g><ellipse cx="6.593442678451538" cy="14.999997854232788" rx="1.483518362045288" ry="1.483518362045288" fill="#FAFAFA" fill-opacity="1" style="mix-blend-mode:passthrough"/></g><g><ellipse cx="9.065885305404663" cy="9.065965414047241" rx="1.483518362045288" ry="1.483518362045288" fill="#FAFAFA" fill-opacity="1" style="mix-blend-mode:passthrough"/></g><g><ellipse cx="20.934079885482788" cy="9.065965414047241" rx="1.483518362045288" ry="1.483518362045288" fill="#FAFAFA" fill-opacity="1" style="mix-blend-mode:passthrough"/></g><g><ellipse cx="9.065885305404663" cy="20.934186697006226" rx="1.483518362045288" ry="1.483518362045288" fill="#FAFAFA" fill-opacity="1" style="mix-blend-mode:passthrough"/></g><g><ellipse cx="20.934079885482788" cy="20.934186697006226" rx="1.483518362045288" ry="1.483518362045288" fill="#FAFAFA" fill-opacity="1" style="mix-blend-mode:passthrough"/></g><g><path d="M15.335059521484375,6.599105214824219L15.335109521484375,6.593437194824219Q15.335109521484375,6.560442594824218,15.328669521484375,6.5280818948242185Q15.322239521484375,6.495721294824219,15.309609521484376,6.465238194824218Q15.296979521484374,6.434755194824219,15.278649521484375,6.407321194824219Q15.260319521484375,6.379887194824219,15.236989521484375,6.356556194824218Q15.213659521484374,6.333226194824219,15.186229521484375,6.314895194824219Q15.158789521484376,6.296564194824219,15.128309521484375,6.283937194824219Q15.097829521484375,6.271311194824219,15.065469521484374,6.264874194824219Q15.033109521484375,6.258437194824219,15.000109521484376,6.258437194824219Q14.967119521484374,6.258437194824219,14.934759521484375,6.264874194824219Q14.902399521484375,6.271311194824219,14.871909521484376,6.283937194824219Q14.841429521484375,6.296564194824219,14.813989521484375,6.314895194824219Q14.786559521484374,6.333226194824219,14.763229521484375,6.356556194824218Q14.739899521484375,6.379887194824219,14.721569521484376,6.407321194824219Q14.703239521484374,6.434755194824219,14.690609521484376,6.465238194824218Q14.677979521484374,6.495721294824219,14.671549521484376,6.5280818948242185Q14.665109521484375,6.560442594824218,14.665109521484375,6.593437194824219Q14.665109521484375,6.601540304824219,14.665499521484374,6.609633894824219Q14.733169521484374,10.884867194824219,15.749259521484376,13.777317194824219L8.836983521484376,20.68953719482422Q8.786276521484375,20.737037194824218,8.758642521484376,20.80083719482422Q8.731009521484374,20.86453719482422,8.731009521484374,20.93403719482422Q8.731009521484374,20.96703719482422,8.737446521484374,20.999437194824218Q8.743883521484374,21.031737194824217,8.756509521484375,21.06223719482422Q8.769136521484375,21.092737194824217,8.787467521484375,21.120137194824217Q8.805798521484375,21.14763719482422,8.829128521484375,21.17093719482422Q8.852459521484375,21.19423719482422,8.879893521484375,21.212637194824218Q8.907327521484374,21.230937194824218,8.937810521484375,21.24353719482422Q8.968293621484374,21.25613719482422,9.000654221484375,21.26263719482422Q9.033014921484375,21.269037194824218,9.066009521484375,21.269037194824218Q9.135501421484374,21.269037194824218,9.199259521484375,21.24143719482422Q9.263017521484375,21.21373719482422,9.310520521484374,21.16303719482422L16.011249521484373,14.462357194824218Q16.019159521484376,14.481387194824219,16.027109521484377,14.500337194824219Q17.272489521484374,17.46953719482422,20.681009521484377,21.15343719482422Q20.728709521484376,21.208537194824217,20.795009521484374,21.238737194824218Q20.861309521484372,21.269037194824218,20.934109521484373,21.269037194824218Q20.967109521484375,21.269037194824218,20.999509521484377,21.26263719482422Q21.031909521484373,21.25613719482422,21.062309521484373,21.24353719482422Q21.092809521484376,21.230937194824218,21.120309521484373,21.212637194824218Q21.147709521484373,21.19423719482422,21.171009521484375,21.17093719482422Q21.194409521484374,21.14763719482422,21.212709521484374,21.120137194824217Q21.231009521484374,21.092737194824217,21.243609521484373,21.06223719482422Q21.256309521484376,21.031737194824217,21.262709521484375,20.999437194824218Q21.269109521484374,20.96703719482422,21.269109521484374,20.93403719482422Q21.269109521484374,20.86793719482422,21.244009521484376,20.80683719482422Q21.218909521484377,20.74563719482422,21.172509521484375,20.69863719482422Q17.844299521484373,17.101537194824218,16.644629521484376,14.241327194824219Q16.583909521484376,14.096577194824219,16.526009521484376,13.947597194824219L21.163209521484376,9.310447194824219Q21.213909521484375,9.262947194824218,21.241509521484375,9.19918719482422Q21.269109521484374,9.135437194824219,21.269109521484374,9.065957194824218Q21.269109521484374,9.032967194824218,21.262709521484375,9.00060719482422Q21.256309521484376,8.968247194824219,21.243609521484373,8.937757194824218Q21.231009521484374,8.907277194824218,21.212709521484374,8.879847194824219Q21.194409521484374,8.852407194824218,21.171009521484375,8.829077194824219Q21.147709521484373,8.80574719482422,21.120309521484373,8.787417194824219Q21.092809521484376,8.76908719482422,21.062309521484373,8.756457194824218Q21.031909521484373,8.743837194824218,20.999509521484377,8.737397194824219Q20.967109521484375,8.730957194824219,20.934109521484373,8.730957194824219Q20.864709521484375,8.730957194824219,20.800909521484375,8.758597194824219Q20.737209521484374,8.78622719482422,20.689709521484374,8.83694719482422L16.277459521484374,13.249127194824219Q15.397459521484375,10.541207194824219,15.335059521484375,6.599105214824219Z" fill-rule="evenodd" fill="#FAFAFA" fill-opacity="1" style="mix-blend-mode:passthrough"/></g><g><path d="M21.121361718750002,9.3436950390625Q21.19056171875,9.2969810390625,21.229761718749998,9.2232560390625Q21.26886171875,9.1495305390625,21.26886171875,9.0660400390625Q21.26886171875,9.0330454390625,21.26246171875,9.0006847390625Q21.25606171875,8.9683241390625,21.243361718750002,8.9378410390625Q21.23076171875,8.9073580390625,21.21246171875,8.8799240390625Q21.19416171875,8.8524900390625,21.17076171875,8.8291590390625Q21.14746171875,8.8058290390625,21.12006171875,8.7874980390625Q21.092561718749998,8.7691670390625,21.06206171875,8.7565400390625Q21.03166171875,8.7439140390625,20.99926171875,8.7374770390625Q20.96686171875,8.7310400390625,20.933861718750002,8.7310400390625Q20.819361718750002,8.7310400390625,20.72876171875,8.8012180390625Q16.815361718749998,11.6332900390625,13.98178171875,12.8261200390625Q10.98173171875,14.0890500390625,6.56076401875,14.6667200390625Q6.49864231875,14.6727800390625,6.44286971875,14.7008000390625Q6.38709671875,14.7288200390625,6.34515671875,14.7750400390625Q6.30321771875,14.821270039062501,6.28073971875,14.8795000390625Q6.25826171875,14.937730039062501,6.25826171875,15.0001400390625Q6.25826171875,15.0331400390625,6.26469871875,15.0655000390625Q6.27113571875,15.0978600390625,6.28376171875,15.1283400390625Q6.29638871875,15.158820039062501,6.31471971875,15.1862600390625Q6.33305071875,15.213690039062499,6.35638071875,15.2370200390625Q6.37971171875,15.2603500390625,6.40714571875,15.2786800390625Q6.43457971875,15.2970100390625,6.46506271875,15.3096400390625Q6.49554581875,15.3222700390625,6.52790641875,15.3287000390625Q6.56026711875,15.3351400390625,6.59326171875,15.3351400390625Q6.62053261875,15.3351400390625,6.64744451875,15.3307300390625Q11.15815171875,14.7413400390625,14.241601718750001,13.4433000390625Q17.145761718750002,12.2207300390625,21.121361718750002,9.3436950390625Z" fill-rule="evenodd" fill="#FAFAFA" fill-opacity="1" style="mix-blend-mode:passthrough"/></g><g><path d="M8.778471521484375,9.2379330390625Q8.731009521484374,9.1585390390625,8.731009521484374,9.0660400390625Q8.731009521484374,9.0330454390625,8.737446521484374,9.0006847390625Q8.743883521484374,8.9683241390625,8.756509521484375,8.9378410390625Q8.769136521484375,8.9073580390625,8.787467521484375,8.8799240390625Q8.805798521484375,8.8524900390625,8.829128521484375,8.8291590390625Q8.852459521484375,8.8058290390625,8.879893521484375,8.7874980390625Q8.907327521484374,8.7691670390625,8.937810521484375,8.7565400390625Q8.968293621484374,8.7439140390625,9.000654221484375,8.7374770390625Q9.033014921484375,8.7310400390625,9.066009521484375,8.7310400390625Q9.112249021484375,8.7310400390625,9.156759621484374,8.7435660390625Q9.201270521484375,8.7560920390625,9.240723521484375,8.7802080390625Q9.280176521484375,8.8043230390625,9.311621521484374,8.8382240390625Q9.343066521484374,8.8721260390625,9.364151521484375,8.9132780390625Q10.676169521484375,11.279040039062501,11.943159521484375,12.6327000390625Q13.251569521484374,14.030600039062499,14.795549521484375,14.6578600390625Q16.332989521484375,15.282470039062499,18.422119521484376,15.2723200390625Q20.401209521484375,15.2627000390625,23.329909521484375,14.6740500390625Q23.367809521484375,14.6651400390625,23.406709521484373,14.6651400390625Q23.439709521484374,14.6651400390625,23.472009521484374,14.671580039062501Q23.504409521484376,14.678020039062499,23.534909521484373,14.690640039062501Q23.565309521484373,14.703270039062499,23.592809521484376,14.721600039062501Q23.620209521484377,14.7399300390625,23.643509521484376,14.7632600390625Q23.666909521484374,14.7865900390625,23.685209521484374,14.8140200390625Q23.703509521484374,14.8414600390625,23.716209521484373,14.871940039062501Q23.728809521484376,14.9024300390625,23.735209521484375,14.9347900390625Q23.741709521484374,14.9671500390625,23.741709521484374,15.0001400390625Q23.741709521484374,15.059590039062499,23.721209521484376,15.1154100390625Q23.700809521484373,15.1712200390625,23.662309521484374,15.216590039062499Q23.623909521484375,15.261960039062501,23.572309521484375,15.2913500390625Q23.520609521484374,15.3207400390625,23.461909521484372,15.3305500390625Q20.469409521484373,15.9320200390625,18.425369521484377,15.941950039062501Q16.203719521484373,15.9527500390625,14.543509521484374,15.2782600390625Q12.863209521484375,14.5956200390625,11.454259521484374,13.0903000390625Q10.130679521484375,11.6761800390625,8.778471521484375,9.2379330390625Z" fill-rule="evenodd" fill="#FAFAFA" fill-opacity="1" style="mix-blend-mode:passthrough"/></g><g><path d="M20.791409521484375,21.237130473632813Q19.096509521484375,20.506000473632813,17.794779521484376,20.169318473632813Q16.413109521484376,19.811978473632813,15.136369521484376,19.807492473632813Q13.848299521484375,19.80296647363281,12.407439521484374,20.156070473632813Q11.021789521484376,20.49564047363281,9.202980521484376,21.239770473632813Q9.137624821484374,21.269050473632813,9.066009521484375,21.269050473632813Q9.033014921484375,21.269050473632813,9.000654221484375,21.26261047363281Q8.968293621484374,21.256170473632814,8.937810521484375,21.243550473632812Q8.907327521484374,21.230920473632814,8.879893521484375,21.21259047363281Q8.852459521484375,21.194260473632813,8.829128521484375,21.17093047363281Q8.805798521484375,21.147600473632814,8.787467521484375,21.12016047363281Q8.769136521484375,21.092730473632813,8.756509521484375,21.06225047363281Q8.743883521484374,21.03176047363281,8.737446521484374,20.99940047363281Q8.731009521484374,20.967040473632814,8.731009521484374,20.934050473632812Q8.731009521484374,20.882780473632813,8.746342521484374,20.83386047363281Q8.761675521484374,20.784940473632812,8.790937521484375,20.742840473632814Q8.820199521484374,20.700740473632813,8.860711521484374,20.66933047363281Q8.901224521484375,20.63791047363281,8.949279521484375,20.620040473632812Q10.814129521484375,19.857074473632814,12.248049521484376,19.50567257363281Q13.768599521484376,19.133039473632813,15.138719521484376,19.137854473632814Q16.499459521484376,19.14263547363281,17.962449521484373,19.521007473632814Q19.314309521484375,19.870641473632812,21.056809521484375,20.622300473632812Q21.103709521484376,20.640770473632813,21.143209521484373,20.67225047363281Q21.182609521484373,20.703740473632813,21.211009521484375,20.74544047363281Q21.239409521484376,20.787140473632814,21.254309521484373,20.835370473632814Q21.269109521484374,20.88359047363281,21.269109521484374,20.934050473632812Q21.269109521484374,20.967040473632814,21.262709521484375,20.99940047363281Q21.256309521484376,21.03176047363281,21.243609521484373,21.06225047363281Q21.231009521484374,21.092730473632813,21.212709521484374,21.12016047363281Q21.194409521484374,21.147600473632814,21.171009521484375,21.17093047363281Q21.147709521484373,21.194260473632813,21.120309521484373,21.21259047363281Q21.092809521484376,21.230920473632814,21.062309521484373,21.243550473632812Q21.031909521484373,21.256170473632814,20.999509521484377,21.26261047363281Q20.967109521484375,21.269050473632813,20.934109521484373,21.269050473632813Q20.859209521484374,21.269050473632813,20.791409521484375,21.237130473632813Z" fill-rule="evenodd" fill="#FAFAFA" fill-opacity="1" style="mix-blend-mode:passthrough"/></g><g><path d="M6.69031811875,14.679368Q11.10846171875,15.862400000000001,12.90473171875,17.64295Q14.74492171875,19.467019999999998,15.32933171875,23.345959999999998Q15.33486171875,23.37601,15.33486171875,23.40655Q15.33486171875,23.43955,15.32842171875,23.47191Q15.32198171875,23.504269999999998,15.30935171875,23.534750000000003Q15.29673171875,23.56524,15.27840171875,23.59267Q15.26007171875,23.6201,15.23674171875,23.643430000000002Q15.21340171875,23.66676,15.18597171875,23.6851Q15.15854171875,23.70343,15.12805171875,23.71605Q15.09757171875,23.72868,15.06521171875,23.735120000000002Q15.03285171875,23.74155,14.99986171875,23.74155Q14.93828171875,23.74155,14.88073171875,23.719659999999998Q14.82318171875,23.697760000000002,14.77717171875,23.65683Q14.73117171875,23.6159,14.70273171875,23.56129Q14.67429171875,23.50667,14.66713171875,23.445520000000002Q14.11579171875,19.786279999999998,12.43331171875,18.11854Q10.76340171875,16.46325,6.51733231875,15.326282Q6.46207271875,15.313422,6.41412971875,15.283084Q6.36618571875,15.252746,6.33090571875,15.208313Q6.29562571875,15.16388,6.27694371875,15.110308Q6.25826171875,15.056736,6.25826171875,15Q6.25826171875,14.9670054,6.26469871875,14.9346447Q6.27113571875,14.9022841,6.28376171875,14.871801Q6.29638871875,14.841318,6.31471971875,14.813884Q6.33305071875,14.78645,6.35638071875,14.763119Q6.37971171875,14.739789,6.40714571875,14.721458Q6.43457971875,14.703127,6.46506271875,14.6905Q6.49554581875,14.677874,6.52790641875,14.671437Q6.56026711875,14.665,6.59326171875,14.665Q6.64285331875,14.665,6.69031811875,14.679368Z" fill-rule="evenodd" fill="#FAFAFA" fill-opacity="1" style="mix-blend-mode:passthrough"/></g></g></g></svg>