<svg xmlns="http://www.w3.org/2000/svg" xmlns:xlink="http://www.w3.org/1999/xlink" fill="none" version="1.1" width="24" height="24" viewBox="0 0 24 24"><defs><clipPath id="master_svg0_96_121726/2_15323/2_15741/2_15697"><rect x="0" y="0" width="24" height="24" rx="0"/></clipPath></defs><g clip-path="url(#master_svg0_96_121726/2_15323/2_15741/2_15697)"><g><g></g><g><path d="M6.749999761581421,2.5C9.097209761581421,2.500000476837,10.999999761581421,4.4027899999999995,10.999999761581421,6.75L10.999999761581421,11L6.749999761581421,11C4.40278976158142,11,2.499999761581421,9.09721,2.499999761581421,6.75C2.499999761581421,4.4027899999999995,4.40278976158142,2.500000238419,6.749999761581421,2.5ZM6.749999761581421,13L10.999999761581421,13L10.999999761581421,17.25C10.999999761581421,19.5972,9.097209761581421,21.5,6.749999761581421,21.5C4.40278976158142,21.5,2.500000476837421,19.5972,2.500000476837421,17.25C2.500000476837421,14.9028,4.40278976158142,13,6.749999761581421,13ZM17.24999976158142,2.5C19.59719976158142,2.500000238419,21.49999976158142,4.4027899999999995,21.49999976158142,6.75C21.49999976158142,9.09721,19.59719976158142,11,17.24999976158142,11L12.999999761581421,11L12.999999761581421,6.75C12.999999761581421,4.4027899999999995,14.90279976158142,2.500000238419,17.24999976158142,2.5ZM12.999999761581421,13L17.24999976158142,13C19.59719976158142,13,21.49999976158142,14.9028,21.49999976158142,17.25C21.49999976158142,19.5972,19.59719976158142,21.5,17.24999976158142,21.5C14.90279976158142,21.5,12.999999761581421,19.5972,12.999999761581421,17.25L12.999999761581421,13Z" fill="#FFFFFF" fill-opacity="1"/></g></g></g></svg>