<svg xmlns="http://www.w3.org/2000/svg" xmlns:xlink="http://www.w3.org/1999/xlink" fill="none" version="1.1" width="24" height="24" viewBox="0 0 24 24"><defs><clipPath id="master_svg0_115_56234/2_15279/2_15738"><rect x="0" y="0" width="24" height="24" rx="0"/></clipPath></defs><g clip-path="url(#master_svg0_115_56234/2_15279/2_15738)"><g></g><g><path d="M14.464000701904297,17.464000633239745L18.0000007019043,21.000000633239747L22.950000701904298,16.050000633239748L21.536000701904296,14.636000633239746L18.0000007019043,18.172000633239747L15.879000701904296,16.050000633239748L14.464000701904297,17.464000633239745Z" fill="#FFFFFF" fill-opacity="1"/></g><g><path d="M21,13.601L21,7L16,2L3.993,2C3.445,2,3,2.444,3,2.992L3,21.008C3.00435781,21.5544,3.446555,21.9962,3.993,22L14.2574,22Q13.9548,21.6333,13.7197,21.2201Q13.4846,20.8069,13.3239,20.3595Q13.1631,19.9121,13.0816,19.4437Q13,18.9754,13,18.5Q13,18.365,13.0066,18.2301Q13.0132,18.0953,13.0265,17.960900000000002Q13.0397,17.8265,13.0595,17.692999999999998Q13.0793,17.5594,13.1057,17.427Q13.132,17.294600000000003,13.1648,17.163600000000002Q13.1976,17.032600000000002,13.2368,16.903399999999998Q13.276,16.7742,13.3215,16.647100000000002Q13.367,16.52,13.4187,16.395200000000003Q13.4703,16.2705,13.5281,16.148400000000002Q13.5858,16.026400000000002,13.6494,15.9073Q13.7131,15.7882,13.7825,15.6724Q13.8519,15.5566,13.9269,15.4444Q14.0019,15.3321,14.0824,15.2237Q14.1628,15.1152,14.2484,15.0108Q14.3341,14.9065,14.4248,14.8064Q14.5154,14.7064,14.6109,14.6109Q14.7064,14.5154,14.8064,14.4248Q14.9065,14.3341,15.0108,14.2484Q15.1152,14.1628,15.2237,14.0824Q15.3321,14.0019,15.4444,13.9269Q15.5566,13.8519,15.6724,13.7825Q15.7882,13.7131,15.9073,13.6494Q16.026400000000002,13.5858,16.148400000000002,13.5281Q16.2705,13.4703,16.395200000000003,13.4187Q16.52,13.367,16.647100000000002,13.3215Q16.7742,13.276,16.903399999999998,13.2368Q17.032600000000002,13.1976,17.163600000000002,13.1648Q17.294600000000003,13.132,17.427,13.1057Q17.5594,13.0793,17.692999999999998,13.0595Q17.8265,13.0397,17.960900000000002,13.0265Q18.0953,13.0133,18.2301,13.0066Q18.365000000000002,13,18.5,13Q19.1518,13,19.7856,13.1524Q20.4194,13.3047,21,13.601ZM6,7L6,9L14,9L14,7L6,7ZM6,13L11,13L11,11L6,11L6,13Z" fill-rule="evenodd" fill="#FFFFFF" fill-opacity="1"/></g></g></svg>