<svg xmlns="http://www.w3.org/2000/svg" xmlns:xlink="http://www.w3.org/1999/xlink" fill="none" version="1.1" width="24" height="24" viewBox="0 0 24 24"><defs><clipPath id="master_svg0_68_221873/2_15327/2_15755/2_15499"><rect x="0" y="0" width="24" height="24" rx="0"/></clipPath></defs><g clip-path="url(#master_svg0_68_221873/2_15327/2_15755/2_15499)"><g><g></g><g><path d="M2,3.993C2.00380802,3.446556,2.44556,3.00435829,2.992,3L21.008,3C21.556,3,22,3.445,22,3.993L22,20.007C21.9962,20.5534,21.5544,20.9956,21.008,21L2.992,21C2.443972,20.9994,1.999999880791,20.555,2,20.007L2,3.993ZM11,5L4,5L4,19L11,19L11,5ZM13,5L13,19L20,19L20,5L13,5ZM14,7L19,7L19,9L14,9L14,7ZM14,10L19,10L19,12L14,12L14,10Z" fill="#FFFFFF" fill-opacity="0.800000011920929"/></g></g></g></svg>