<svg xmlns="http://www.w3.org/2000/svg" xmlns:xlink="http://www.w3.org/1999/xlink" fill="none" version="1.1" width="24" height="24" viewBox="0 0 24 24"><defs><clipPath id="master_svg0_68_221873/2_15323/2_15746/2_15702"><rect x="0" y="0" width="24" height="24" rx="0"/></clipPath></defs><g clip-path="url(#master_svg0_68_221873/2_15323/2_15746/2_15702)"><g><g></g><g><path d="M6.749999761581421,2.5C9.097209761581421,2.500000476837,10.999999761581421,4.4027899999999995,10.999999761581421,6.75L10.999999761581421,11L6.749999761581421,11C4.40278976158142,11,2.499999761581421,9.09721,2.499999761581421,6.75C2.499999761581421,4.4027899999999995,4.40278976158142,2.500000238419,6.749999761581421,2.5ZM8.999999761581421,9L8.999999761581421,6.75C8.999999761581421,5.50736,7.992639761581421,4.5,6.749999761581421,4.5C5.507359761581421,4.5,4.499999761581421,5.50736,4.499999761581421,6.75C4.499999761581421,7.99264,5.507359761581421,9,6.749999761581421,9L8.999999761581421,9ZM6.749999761581421,13L10.999999761581421,13L10.999999761581421,17.25C10.999999761581421,19.5972,9.097209761581421,21.5,6.749999761581421,21.5C4.40278976158142,21.5,2.500000476837421,19.5972,2.500000476837421,17.25C2.500000476837421,14.9028,4.40278976158142,13,6.749999761581421,13ZM6.749999761581421,15C5.507359761581421,15,4.499999761581421,16.0074,4.499999761581421,17.25C4.499999761581421,18.4926,5.507359761581421,19.5,6.749999761581421,19.5C7.992639761581421,19.5,8.999999761581421,18.4926,8.999999761581421,17.25L8.999999761581421,15L6.749999761581421,15ZM17.24999976158142,2.5C19.59719976158142,2.500000238419,21.49999976158142,4.4027899999999995,21.49999976158142,6.75C21.49999976158142,9.09721,19.59719976158142,11,17.24999976158142,11L12.999999761581421,11L12.999999761581421,6.75C12.999999761581421,4.4027899999999995,14.90279976158142,2.500000238419,17.24999976158142,2.5ZM17.24999976158142,9C18.49259976158142,9,19.49999976158142,7.99264,19.49999976158142,6.75C19.49999976158142,5.50736,18.49259976158142,4.5,17.24999976158142,4.5C16.00739976158142,4.5,14.999999761581421,5.50736,14.999999761581421,6.75L14.999999761581421,9L17.24999976158142,9ZM12.999999761581421,13L17.24999976158142,13C19.59719976158142,13,21.49999976158142,14.9028,21.49999976158142,17.25C21.49999976158142,19.5972,19.59719976158142,21.5,17.24999976158142,21.5C14.90279976158142,21.5,12.999999761581421,19.5972,12.999999761581421,17.25L12.999999761581421,13ZM14.999999761581421,15L14.999999761581421,17.25C14.999999761581421,18.4926,16.00739976158142,19.5,17.24999976158142,19.5C18.49259976158142,19.5,19.49999976158142,18.4926,19.49999976158142,17.25C19.49999976158142,16.0074,18.49259976158142,15,17.24999976158142,15L14.999999761581421,15Z" fill="#FFFFFF" fill-opacity="0.800000011920929"/></g></g></g></svg>