<svg xmlns="http://www.w3.org/2000/svg" xmlns:xlink="http://www.w3.org/1999/xlink" fill="none" version="1.1" width="24" height="24" viewBox="0 0 24 24"><defs><clipPath id="master_svg0_68_221873/2_15279/2_15749"><rect x="0" y="0" width="24" height="24" rx="0"/></clipPath></defs><g clip-path="url(#master_svg0_68_221873/2_15279/2_15749)"><g><g></g><g><path d="M15,4L5,4L5,20L14,20L14,22L3.993,22C3.446555,21.9962,3.00435781,21.5544,3,21.008L3,2.992C3,2.444,3.447,2,3.999,2L16,2L21,7L21,13L19,13L19,8L15,4Z" fill="#FFFFFF" fill-opacity="0.800000011920929"/></g><g><path d="M7,7L7,9L15,9L15,7L7,7ZM7,11L7,13L12,13L12,11L7,11Z" fill="#FFFFFF" fill-opacity="0.800000011920929"/></g></g><g><path d="M14,17.828L17.536,21.364L22.486,16.414L21.072,15L17.536,18.536L15.415,16.414L14,17.828Z" fill="#FFFFFF" fill-opacity="0.800000011920929"/></g></g></svg>