<svg xmlns="http://www.w3.org/2000/svg" xmlns:xlink="http://www.w3.org/1999/xlink" fill="none" version="1.1" width="24" height="24" viewBox="0 0 24 24"><defs><clipPath id="master_svg0_113_52199/2_15582/2_15727/2_15609"><rect x="0" y="0" width="24" height="24" rx="0"/></clipPath></defs><g clip-path="url(#master_svg0_113_52199/2_15582/2_15727/2_15609)"><g><g></g><g><path d="M16,16C17.657,16,19,17.343,19,19C19,20.657,17.657,22,16,22C14.343,22,13,20.657,13,19C13,17.343,14.343,16,16,16ZM6,12C8.21,12,10,13.79,10,16C10,18.21,8.21,20,6,20C3.79,20,2,18.21,2,16C2,13.79,3.79,12,6,12ZM14.5,2C17.538,2,20,4.462,20,7.5C20,10.538,17.538,13,14.5,13C11.462,13,9,10.538,9,7.5C9,4.462,11.462,2,14.5,2Z" fill="#FFFFFF" fill-opacity="1"/></g></g></g></svg>