<svg xmlns="http://www.w3.org/2000/svg" xmlns:xlink="http://www.w3.org/1999/xlink" fill="none" version="1.1" width="32" height="32" viewBox="0 0 32 32"><defs><clipPath id="master_svg0_45_55289/45_52757/9_8469"><rect x="9" y="9" width="14" height="14" rx="0"/></clipPath></defs><g><rect x="0" y="0" width="32" height="32" rx="6" fill="#FFFFFF" fill-opacity="1"/><rect x="0.5" y="0.5" width="31" height="31" rx="5.5" fill-opacity="0" stroke-opacity="1" stroke="#DCDFE6" fill="none" stroke-width="1"/><g clip-path="url(#master_svg0_45_55289/45_52757/9_8469)"><g><path d="M14.24999781803131,16.15575421760559C14.24999781803131,16.15575421760559,14.24999781803131,21.68757421760559,14.24999781803131,21.68757421760559C14.25000781803131,21.76207421760559,14.269077818031311,21.83547421760559,14.305427818031312,21.90057421760559C14.34177781803131,21.965774217605592,14.394177818031311,22.020574217605592,14.457657818031311,22.059774217605593C14.52113781803131,22.09897421760559,14.593587818031311,22.12127421760559,14.668127818031312,22.12457421760559C14.742657818031311,22.12787421760559,14.816797818031311,22.11207421760559,14.883497818031312,22.07867421760559C14.883497818031312,22.07867421760559,17.508497818031312,20.76617421760559,17.508497818031312,20.76617421760559C17.58107781803131,20.72976421760559,17.642107818031313,20.67393421760559,17.68475781803131,20.604814217605593C17.72740781803131,20.535774217605592,17.74999781803131,20.45615421760559,17.74999781803131,20.37503421760559C17.74999781803131,20.37503421760559,17.74999781803131,16.15575421760559,17.74999781803131,16.15575421760559C17.74999781803131,16.15575421760559,21.588607818031313,11.464875217605591,21.588607818031313,11.464875217605591C21.62510781803131,11.420405217605591,21.65240781803131,11.369198217605591,21.66900781803131,11.31417421760559C21.68560781803131,11.25915221760559,21.69120781803131,11.20139021760559,21.68550781803131,11.14419021760559C21.67980781803131,11.08698821760559,21.66300781803131,11.03146821760559,21.63580781803131,10.98079821760559C21.608707818031313,10.930127217605591,21.571907818031313,10.885300217605591,21.52730781803131,10.84887491760559C21.48290781803131,10.812449517605591,21.431707818031313,10.78513961760559,21.376707818031313,10.76850451760559C21.32160781803131,10.75186924760559,21.263907818031313,10.74623456760559,21.20660781803131,10.751922157605591C21.14950781803131,10.75760974760559,21.09390781803131,10.77450831760559,21.04330781803131,10.801652717605592C20.99260781803131,10.82879721760559,20.94780781803131,10.86565621760559,20.91130781803131,10.910125217605591C20.91130781803131,10.910125217605591,16.973867818031312,15.722624217605592,16.973867818031312,15.722624217605592C16.909857818031313,15.80087421760559,16.87491781803131,15.89889421760559,16.87499781803131,16.000004217605593C16.87499781803131,16.000004217605593,16.87499781803131,20.10466421760559,16.87499781803131,20.10466421760559C16.87499781803131,20.10466421760559,15.12499781803131,20.97967421760559,15.12499781803131,20.97967421760559C15.12499781803131,20.97967421760559,15.12499781803131,16.000004217605593,15.12499781803131,16.000004217605593C15.12508781803131,15.89889421760559,15.090147818031312,15.80087421760559,15.026117818031311,15.722624217605592C15.026117818031311,15.722624217605592,11.673117818031312,11.62500221760559,11.673117818031312,11.62500221760559C11.673117818031312,11.62500221760559,18.62499781803131,11.62500221760559,18.62499781803131,11.62500221760559C18.741027818031313,11.62500221760559,18.852307818031314,11.57890621760559,18.93435781803131,11.496859217605591C19.01640781803131,11.41481221760559,19.062467818031312,11.303532217605591,19.062467818031312,11.18750021760559C19.062467818031312,11.071468217605592,19.01640781803131,10.960188217605591,18.93435781803131,10.878141217605592C18.852307818031314,10.79609361760559,18.741027818031313,10.749999965605591,18.62499781803131,10.749999965605591C18.62499781803131,10.749999965605591,10.749999818031311,10.749999965605591,10.749999818031311,10.749999965605591C10.66711881803131,10.74994467260559,10.585927818031312,10.77343281760559,10.515878818031311,10.81772981760559C10.44582881803131,10.86202621760559,10.389802818031312,10.92531021760559,10.354322818031312,11.000212217605592C10.318842828031311,11.075114217605591,10.305368618031311,11.158554217605591,10.315468988031311,11.240816217605591C10.325569318031311,11.32307921760559,10.358828818031311,11.400780217605591,10.411375018031311,11.464875217605591C10.411375018031311,11.464875217605591,14.24999781803131,16.15575421760559,14.24999781803131,16.15575421760559C14.24999781803131,16.15575421760559,14.24999781803131,16.15575421760559,14.24999781803131,16.15575421760559Z" fill="#000000" fill-opacity="1"/></g></g></g></svg>