<svg xmlns="http://www.w3.org/2000/svg" xmlns:xlink="http://www.w3.org/1999/xlink" fill="none" version="1.1" width="100" height="51.898712158203125" viewBox="0 0 100 51.898712158203125"><defs><linearGradient x1="-5.1468611594884806e-9" y1="0.0950000062584877" x2="1.0705882517961136" y2="0.7974122856347201" id="master_svg0_28_62354"><stop offset="0%" stop-color="#FCFCFD" stop-opacity="1"/><stop offset="100%" stop-color="#E9EBEF" stop-opacity="1"/></linearGradient><mask id="master_svg1_113_59740" style="mask-type:alpha" maskUnits="objectBoundingBox"><g><g><path d="M88.60760778808594,0C88.60760778808594,0,67.08860778808594,0,67.08860778808594,0C67.08860778808594,0,67.08860778808594,45.5696,67.08860778808594,45.5696C67.08860778808594,45.5696,88.60760778808594,45.5696,88.60760778808594,45.5696C88.60760778808594,45.5696,88.60760778808594,0,88.60760778808594,0C88.60760778808594,0,88.60760778808594,0,88.60760778808594,0Z" fill="#FFFFFF" fill-opacity="1"/></g></g></mask></defs><g><g><path d="M50,51.898755761718746C77.6144,51.898755761718746,100,49.25402576171875,100,45.991565761718746C100,42.72912476171875,72.5512,41.77215576171875,44.9367,41.77215576171875C17.3225,41.77215576171875,0,42.72912476171875,0,45.991565761718746C0,49.25402576171875,22.3857,51.898755761718746,50,51.898755761718746C50,51.898755761718746,50,51.898755761718746,50,51.898755761718746Z" fill-rule="evenodd" fill="#F7F8FC" fill-opacity="1"/></g><g transform="matrix(1,0,0,-1,0,32.911376953125)"><path d="M16.455761987304687,32.9113884765625C16.455761987304687,32.9113884765625,67.08856198730469,32.9113884765625,67.08856198730469,32.9113884765625C67.08856198730469,32.9113884765625,53.16456198730469,16.4556884765625,53.16456198730469,16.4556884765625C53.16456198730469,16.4556884765625,2.5316619873046875,16.4556884765625,2.5316619873046875,16.4556884765625C2.5316619873046875,16.4556884765625,16.455761987304687,32.9113884765625,16.455761987304687,32.9113884765625C16.455761987304687,32.9113884765625,16.455761987304687,32.9113884765625,16.455761987304687,32.9113884765625Z" fill-rule="evenodd" fill="#E5E7E9" fill-opacity="1"/></g><g><path d="M67.0885884765625,0C67.0885884765625,0,16.4556884765625,0,16.4556884765625,0C16.4556884765625,0,16.4556884765625,45.5696,16.4556884765625,45.5696C16.4556884765625,45.5696,67.0885884765625,45.5696,67.0885884765625,45.5696C67.0885884765625,45.5696,67.0885884765625,0,67.0885884765625,0C67.0885884765625,0,67.0885884765625,0,67.0885884765625,0Z" fill="url(#master_svg0_28_62354)" fill-opacity="1"/></g><g mask="url(#master_svg1_113_59740)"><g transform="matrix(-1,0,0,1,177.21524047851562,0)"><path d="M110.12662023925782,0C110.12662023925782,0,88.60762023925781,0,88.60762023925781,0C88.60762023925781,0,88.60762023925781,45.5696,88.60762023925781,45.5696C88.60762023925781,45.5696,110.12662023925782,45.5696,110.12662023925782,45.5696C110.12662023925782,45.5696,110.12662023925782,0,110.12662023925782,0C110.12662023925782,0,110.12662023925782,0,110.12662023925782,0Z" fill="#E0E3E9" fill-opacity="1"/></g><g transform="matrix(-1,0,0,1,194.93679809570312,0)"><path d="M106.32914904785156,0C106.32914904785156,0,127.84809904785156,0,127.84809904785156,0C127.84809904785156,0,122.78479904785156,22.7848,122.78479904785156,22.7848C122.78479904785156,22.7848,97.46839904785156,20.2532,97.46839904785156,20.2532C97.46839904785156,20.2532,106.32914904785156,0,106.32914904785156,0C106.32914904785156,0,106.32914904785156,0,106.32914904785156,0Z" fill-rule="evenodd" fill="#D5D7DE" fill-opacity="1"/></g></g><g transform="matrix(-1,0,0,1,200,0)"><path d="M111.3924,0C111.3924,0,132.91140000000001,0,132.91140000000001,0C132.91140000000001,0,121.519,16.4557,121.519,16.4557C121.519,16.4557,100,16.4557,100,16.4557C100,16.4557,111.3924,0,111.3924,0C111.3924,0,111.3924,0,111.3924,0Z" fill-rule="evenodd" fill="#F8F9FB" fill-opacity="1"/></g></g></svg>