<svg xmlns="http://www.w3.org/2000/svg" xmlns:xlink="http://www.w3.org/1999/xlink" fill="none" version="1.1" width="32" height="32" viewBox="0 0 32 32"><defs><clipPath id="master_svg0_53_40893/53_46758/53_45383"><rect x="6" y="6.000002861022949" width="20" height="20" rx="0"/></clipPath></defs><g><rect x="0" y="0" width="32" height="32.000003814697266" rx="6" fill="#FFEDF0" fill-opacity="1"/><g clip-path="url(#master_svg0_53_40893/53_46758/53_45383)"><g><path d="M9.332083,7.666628837585449C8.872908,7.666628837585449,8.5,8.036670837585449,8.5,8.493128837585449L8.5,23.50682883758545C8.5,23.953928837585448,8.870633,24.333328837585448,9.327833,24.333328837585448L22.6722,24.333328837585448C23.1292,24.333328837585448,23.5,23.95742883758545,23.5,23.49372883758545L23.4998,11.833298837585449L19.3333,7.666628837585449L9.332083,7.666628837585449ZM14.75,12.24995883758545L16.41667,12.24995883758545C16.41667,14.32490883758545,18.203,16.55029883758545,20.4302,17.29270883758545L20.0488,18.90832883758545C17.43617,18.53502883758545,14.73508,19.650328837585448,12.295580000000001,21.27672883758545L11.31275,19.93252883758545C12.21791,19.20842883758545,13.08577,17.979728837585448,13.72916,16.54445883758545C14.37025,15.114378837585448,14.75,13.564538837585449,14.75,12.24995883758545ZM15.25,17.22629883758545C15.47275,16.72929883758545,15.67025,16.21354883758545,15.83642,15.690378837585449C16.2295,16.29420883758545,16.71275,16.848458837585447,17.258499999999998,17.329378837585452C16.44033,17.475878837585448,15.638829999999999,17.71632883758545,14.86275,18.022928837585447C15,17.761828837585448,15.129249999999999,17.49562883758545,15.25,17.22629883758545Z" fill="#F23A58" fill-opacity="1" style="mix-blend-mode:passthrough"/></g></g></g></svg>