<svg xmlns="http://www.w3.org/2000/svg" xmlns:xlink="http://www.w3.org/1999/xlink" fill="none" version="1.1" width="32" height="32" viewBox="0 0 32 32"><defs><clipPath id="master_svg0_53_40981/53_46758/53_46609"><rect x="6" y="6.000002861022949" width="20" height="20" rx="0"/></clipPath></defs><g><rect x="0" y="0" width="32" height="32.000003814697266" rx="6" fill="#FFE9E2" fill-opacity="1"/><g clip-path="url(#master_svg0_53_40981/53_46758/53_46609)"><g><path d="M19.3333,7.666628837585449L23.5,11.833298837585449L23.5,23.50682883758545C23.5,23.96332883758545,23.1292,24.333328837585448,22.6722,24.333328837585448L9.327833,24.333328837585448C8.870633,24.333328837585448,8.5,23.953928837585448,8.5,23.50682883758545L8.5,8.493128837585449C8.5,8.036670837585449,8.870792,7.666628837585449,9.327833,7.666628837585449L19.3333,7.666628837585449ZM12.66667,12.66662883758545L12.66667,19.333328837585448L14.33333,19.333328837585448L14.33333,17.66662883758545L19.3333,17.66662883758545L19.3333,12.66662883758545L12.66667,12.66662883758545ZM14.33333,14.333298837585449L17.66667,14.333298837585449L17.66667,15.99995883758545L14.33333,15.99995883758545L14.33333,14.333298837585449Z" fill="#EC6B47" fill-opacity="1" style="mix-blend-mode:passthrough"/></g></g></g></svg>