<svg xmlns="http://www.w3.org/2000/svg" xmlns:xlink="http://www.w3.org/1999/xlink" fill="none" version="1.1" width="20" height="20" viewBox="0 0 20 20"><defs><clipPath id="master_svg0_53_095402"><rect x="0" y="0" width="20" height="20" rx="0"/></clipPath></defs><g clip-path="url(#master_svg0_53_095402)"><g><path d="M15.025948046875,13.84720390625L18.594848046875,17.41610390625L17.416348046875,18.59460390625L13.847448046875,15.02570390625C12.564148046875,16.05230390625,10.936748046875,16.66650390625,9.166748046875,16.66650390625C5.026748046874999,16.66650390625,1.666748046875,13.30650390625,1.666748046875,9.16650390625C1.666748046875,5.026503906249999,5.026748046874999,1.66650390625,9.166748046875,1.66650390625C13.306748046875,1.66650390625,16.666748046875,5.026503906249999,16.666748046875,9.16650390625C16.666748046875,10.93650390625,16.052548046875,12.56390390625,15.025948046875,13.84720390625ZM13.354048046875,13.22880390625C14.373048046875,12.17870390625,15.000048046875,10.74617390625,15.000048046875,9.16650390625C15.000048046875,5.94358390625,12.389648046875,3.33317390625,9.166748046875,3.33317390625C5.943828046875,3.33317390625,3.333418046875,5.94358390625,3.333418046875,9.16650390625C3.333418046875,12.38940390625,5.943828046875,14.99980390625,9.166748046875,14.99980390625C10.746418046875,14.99980390625,12.178948046875,14.37280390625,13.229048046875,13.35380390625L13.354048046875,13.22880390625ZM5.833418046875,8.33317390625L12.500048046875,8.33317390625L12.500048046875,9.99983390625L5.833418046875,9.99983390625L5.833418046875,8.33317390625Z" fill="#606266" fill-opacity="1"/></g></g></svg>